<svg xmlns="http://www.w3.org/2000/svg" xmlns:xlink="http://www.w3.org/1999/xlink" width="25" height="25" viewBox="0 0 25 25">
  <defs>
    <clipPath id="ai">
      <rect id="Rectangle_841" data-name="Rectangle 841" width="25" height="25" transform="translate(300 224)" fill="#fffffb"/>
    </clipPath>
  </defs>
  <g id="ai" transform="translate(-300 -224)" clip-path="url(#ai)">
    <g id="ai-2" data-name="ai" transform="translate(301.002 224)">
      <path id="Path_3772" data-name="Path 3772" d="M368.483,162.083h1.25a.417.417,0,0,0,.417-.417v-1.25a.417.417,0,1,0-.833,0v.833h-.833a.417.417,0,0,0,0,.833Zm0,0" transform="translate(-348.898 -151.667)" fill="#6768a6"/>
      <path id="Path_3773" data-name="Path 3773" d="M157.526,107.333a1.667,1.667,0,1,0-1.667-1.667A1.667,1.667,0,0,0,157.526,107.333Zm0-2.5a.833.833,0,1,1-.833.833A.833.833,0,0,1,157.526,104.833Zm0,0" transform="translate(-147.743 -98.583)" fill="#6768a6"/>
      <path id="Path_3774" data-name="Path 3774" d="M.681,8.612a1.244,1.244,0,0,0,1.746-.7L5.7,7.861l-.572.472a.416.416,0,0,0-.1.53l.779,1.345.017,1.875H3.752a.367.367,0,0,0-.072.015,1.25,1.25,0,1,0,0,.8.367.367,0,0,0,.072.015h2.5a.417.417,0,0,0,.417-.42l-.019-2.112,1.333-.5q.136.088.275.161l.281,1.689a.417.417,0,0,0,.411.348h.218v2.083H7.918a.417.417,0,0,0-.417.417v6.078L3.874,24.289A.417.417,0,0,0,4.168,25H17.5a.417.417,0,0,0,.295-.711L15,21.494V19.282l.933-1.554a10.989,10.989,0,0,0,2.817,1.438h2.5a.417.417,0,0,0,.417-.417V16.423l.711-.711a.421.421,0,0,0,.122-.3v-1.25h.609a.833.833,0,0,0,.762-1.172l-1.3-2.917a3.238,3.238,0,0,0,.758-2.09,7.234,7.234,0,0,0-4.021-6.506L18.106.877a.417.417,0,0,0-.525.131l-.175.242H14.585V.417A.417.417,0,0,0,14.168,0H10a.417.417,0,0,0-.417.417V2.083H8.949a.417.417,0,0,0-.411.348L8.257,4.12c-.093.049-.185.1-.275.161l-1.6-.6a.416.416,0,0,0-.507.182l-.42.728c-.011,0-.02-.006-.03-.006h-2.5V3.257a1.25,1.25,0,1,0-.833,0V5a.417.417,0,0,0,.417.417H5a.412.412,0,0,0,.136.417L6.453,6.922c0,.031,0,.062,0,.093l-4.026.062A1.25,1.25,0,1,0,.681,8.612ZM2.5,12.917a.417.417,0,1,1,.417-.417A.417.417,0,0,1,2.5,12.917Zm0-11.25a.417.417,0,1,1-.417.417A.417.417,0,0,1,2.5,1.667ZM10,12.083h.614a.417.417,0,0,0,.411-.348l.282-1.689c.093-.048.185-.1.275-.161l1.605.6A.416.416,0,0,0,13.7,10.3l.176-.3h1.963a.381.381,0,0,0,.09-.018l.743.99v.695H15V12.5h.961l-1.116.446a.417.417,0,0,0-.262.387v.833H10ZM14.529,5.3,14.353,5h1.065V6.667h-2l1.01-.833A.417.417,0,0,0,14.529,5.3Zm.889,2.2V9.167H14.353l.176-.3a.417.417,0,0,0-.1-.528L13.423,7.5ZM12.624,17.795l1.545,1.545v.244h-2.5V15H12.5v2.5A.417.417,0,0,0,12.624,17.795ZM9.983,23.333H10v-.022l1.564-1.787a.417.417,0,0,0,.1-.275v-.833H12.5v3.75H9.252Zm-4.808.833,3.039-3.039a.417.417,0,0,0,.122-.295V15h2.5v6.093L10,22.046V20H9.168v3L8.146,24.167Zm11.322,0H13.335v-3.75h.833v1.25a.417.417,0,0,0,.122.295ZM14.5,18.5l-1.167-1.167V15h1.25v1.667a.417.417,0,0,0,.2.353c.155.1.3.183.443.274ZM18.05,1.782l.891.446a6.405,6.405,0,0,1,3.56,5.76,2.413,2.413,0,0,1-.711,1.718.417.417,0,0,0-.086.464l1.406,3.164H22.085a.417.417,0,0,0-.417.417V15H21.6a2.412,2.412,0,0,1-1.717-.711.417.417,0,0,0-.589.589,3.23,3.23,0,0,0,1.827.917l-.161.161a.417.417,0,0,0-.122.295v2.083l-2.044,0A22.152,22.152,0,0,1,16.01,16.8l0,0h0c-.2-.119-.393-.24-.587-.361v-2.82l1.821-.728A.417.417,0,0,0,17.5,12.5V10.833a.417.417,0,0,0-.083-.25L16.252,9.028V4.3ZM10.418.833h3.333v.833a.417.417,0,0,0,.417.417h2.643L15.5,3.925a.412.412,0,0,0-.078.242H13.872l-.176-.3a.416.416,0,0,0-.507-.182l-1.6.6c-.09-.059-.182-.113-.275-.161l-.283-1.689a.417.417,0,0,0-.411-.348h-.2ZM5.934,5.417l.48-.833,1.48.555a.417.417,0,0,0,.4-.056,2.5,2.5,0,0,1,.507-.3.416.416,0,0,0,.247-.315L9.3,2.917h.961l.259,1.555a.416.416,0,0,0,.247.315,2.525,2.525,0,0,1,.507.3.416.416,0,0,0,.395.056l1.48-.555.48.833-1.219,1a.417.417,0,0,0-.149.371,2.242,2.242,0,0,1,0,.586.417.417,0,0,0,.149.371l1.219,1-.48.833-1.48-.555a.416.416,0,0,0-.395.056,2.525,2.525,0,0,1-.507.3.416.416,0,0,0-.247.315l-.259,1.555H9.3L9.043,9.7A.416.416,0,0,0,8.8,9.38a2.493,2.493,0,0,1-.507-.3.417.417,0,0,0-.4-.056l-1.48.555-.48-.833,1.219-1,.021-.023L7.2,7.7a.406.406,0,0,0,.075-.115l0,0A.412.412,0,0,0,7.3,7.437a.138.138,0,0,0,0-.018c0-.005,0-.009,0-.014s0-.019,0-.029a2.242,2.242,0,0,1,0-.586.418.418,0,0,0-.149-.371ZM.881,7.31A.412.412,0,0,1,1.125,7.1a.417.417,0,0,1,.255.792.415.415,0,0,1-.5-.583Zm0,0" fill="#6768a6"/>
      <path id="Path_3775" data-name="Path 3775" d="M176.066,320h.833v.833h-.833Zm0,0" transform="translate(-166.898 -303.333)" fill="#6768a6"/>
      <path id="Path_3776" data-name="Path 3776" d="M176.066,352h.833v.833h-.833Zm0,0" transform="translate(-166.898 -333.667)" fill="#6768a6"/>
      <path id="Path_3777" data-name="Path 3777" d="M224.066,224h.833v.833h-.833Zm0,0" transform="translate(-212.398 -212.333)" fill="#6768a6"/>
      <path id="Path_3778" data-name="Path 3778" d="M256.066,224h.833v.833h-.833Zm0,0" transform="translate(-242.731 -212.333)" fill="#6768a6"/>
      <path id="Path_3779" data-name="Path 3779" d="M328.066,80h.833v1.667h-.833Zm0,0" transform="translate(-310.981 -75.833)" fill="#6768a6"/>
      <path id="Path_3780" data-name="Path 3780" d="M328.066,128h.833v.833h-.833Zm0,0" transform="translate(-310.981 -121.333)" fill="#6768a6"/>
      <path id="Path_3781" data-name="Path 3781" d="M328.066,160h.833v.833h-.833Zm0,0" transform="translate(-310.981 -151.667)" fill="#6768a6"/>
    </g>
  </g>
</svg>
