<svg xmlns="http://www.w3.org/2000/svg" xmlns:xlink="http://www.w3.org/1999/xlink" width="25" height="25" viewBox="0 0 25 25">
  <defs>
    <clipPath id="api">
      <rect id="Rectangle_837" data-name="Rectangle 837" width="25" height="25" transform="translate(300 224)" fill="#fffffb"/>
    </clipPath>
  </defs>
  <g id="API" transform="translate(-300 -224)" clip-path="url(#api)">
    <g id="API-2" data-name="API" transform="translate(298.013 222)">
      <path id="Path_3719" data-name="Path 3719" d="M25.321,23.662a1.666,1.666,0,0,0-1.608,1.25H22.4a.417.417,0,0,1-.417-.417V21.579h.891a1.666,1.666,0,1,0,0-.833h-.891V14.5h1.25a3.749,3.749,0,1,0,0-7.5H22.38a3.74,3.74,0,0,0-5.907-2.624A6.241,6.241,0,0,0,5.454,7.016,3.746,3.746,0,0,0,5.742,14.5h1.25v5.415H6.1a1.666,1.666,0,1,0,0,.833h.891V24.5a.417.417,0,0,1-.417.417H5.267a1.666,1.666,0,1,0,0,.833H6.575a1.253,1.253,0,0,0,1.25-1.25V20.746h3.333a1.253,1.253,0,0,0,1.25-1.25v-5h1.666V23.72a1.666,1.666,0,1,0,.833,0V14.5h1.666v5.832a1.253,1.253,0,0,0,1.25,1.25h3.333V24.5a1.253,1.253,0,0,0,1.25,1.25h1.308a1.664,1.664,0,1,0,1.608-2.083Zm-.833-3.333a.833.833,0,1,1-.833.833A.833.833,0,0,1,24.488,20.329Zm-20,.833a.833.833,0,1,1,.833-.833A.833.833,0,0,1,4.492,21.163Zm-.833,5a.833.833,0,1,1,.833-.833A.833.833,0,0,1,3.659,26.161ZM11.574,19.5a.417.417,0,0,1-.417.417H7.824V14.5h3.749Zm3.749,5.832a.833.833,0,1,1-.833-.833A.833.833,0,0,1,15.323,25.328Zm5.832-4.582H17.822a.417.417,0,0,1-.417-.417V14.5h3.749ZM5.742,13.664a2.916,2.916,0,1,1,0-5.832h.05a2.924,2.924,0,0,1,2.5,1.5l.733-.4A3.785,3.785,0,0,0,6.3,7.041a5.415,5.415,0,0,1,10.681.821l.829-.058a6.21,6.21,0,0,0-.862-2.741,2.916,2.916,0,0,1,4.266,3.766l.725.4a3.751,3.751,0,0,0,.446-1.4h.858a2.916,2.916,0,1,1,0,5.832Zm19.579,12.5a.833.833,0,1,1,.833-.833A.833.833,0,0,1,25.321,26.161Z" transform="translate(0 0)" fill="#6768a6"/>
      <path id="Path_3720" data-name="Path 3720" d="M6.833,20.083a1.25,1.25,0,0,1,1.25-1.25V18a2.083,2.083,0,1,0,0,4.166h2.5v-.833h-2.5A1.25,1.25,0,0,1,6.833,20.083Z" transform="translate(-2.341 -9.335)" fill="#6768a6"/>
      <path id="Path_3721" data-name="Path 3721" d="M21.918,18.371A.412.412,0,0,0,21.505,18H19.839a.412.412,0,0,0-.412.371L19.01,22.12l.825.092.146-1.3h1.383l.146,1.3.825-.092Zm-1.845,1.712.142-1.25h.916l.142,1.25Z" transform="translate(-9.932 -9.335)" fill="#6768a6"/>
      <path id="Path_3722" data-name="Path 3722" d="M31.916,18h-2.5a.417.417,0,0,0-.417.417v3.749h.833V20.5h2.083a.417.417,0,0,0,.417-.417V18.417A.417.417,0,0,0,31.916,18ZM31.5,19.666H29.833v-.833H31.5Z" transform="translate(-15.76 -9.335)" fill="#6768a6"/>
      <path id="Path_3723" data-name="Path 3723" d="M40.666,18.833v2.5H41.5v.833H39v-.833h.833v-2.5H39V18h2.5v.833Z" transform="translate(-21.594 -9.335)" fill="#6768a6"/>
    </g>
  </g>
</svg>
