<svg xmlns="http://www.w3.org/2000/svg" width="20" height="19.946" viewBox="0 0 20 19.946">
  <path id="application" d="M18.321,2.74a2.5,2.5,0,0,0-3.529,0L11.919,5.613A2.5,2.5,0,0,0,9.483,3.657H4.492A2.5,2.5,0,0,0,2,6.152v13.3a2.5,2.5,0,0,0,2.5,2.5H17.8a2.5,2.5,0,0,0,2.5-2.5v-4.99a2.5,2.5,0,0,0-1.872-2.417l2.839-2.839a2.5,2.5,0,0,0,0-3.529Zm-3.714,9.234h-2.63V9.345Zm1.361-8.058a.832.832,0,0,1,1.176,0L20.09,6.862a.832.832,0,0,1,0,1.176l-2.945,2.945a.832.832,0,0,1-1.176,0L13.023,8.038a.832.832,0,0,1,0-1.176ZM10.314,6.152v5.822H3.661V6.152a.832.832,0,0,1,.832-.832h4.99A.832.832,0,0,1,10.314,6.152ZM3.665,19.46V13.638h6.649v6.65H4.492a.825.825,0,0,1-.827-.828Zm8.312-5.822H17.8a.832.832,0,0,1,.832.832v4.99a.832.832,0,0,1-.832.832H11.978Z" transform="translate(-1.997 -2.009)" fill="#464653"/>
</svg>
