<svg xmlns="http://www.w3.org/2000/svg" xmlns:xlink="http://www.w3.org/1999/xlink" width="25" height="25" viewBox="0 0 25 25">
  <defs>
    <clipPath id="authorization">
      <rect id="Rectangle_838" data-name="Rectangle 838" width="25" height="25" transform="translate(300 224)" fill="#fffffb"/>
    </clipPath>
  </defs>
  <g id="authorization" transform="translate(-300 -224)" clip-path="url(#authorization)">
    <g id="authorization-2" data-name="authorization" transform="translate(300 224)">
      <path id="Path_3724" data-name="Path 3724" d="M.7,18.229l.551-.625a1.251,1.251,0,0,1-.423-.937V2.083A1.251,1.251,0,0,1,2.083.833H22.917a1.251,1.251,0,0,1,1.25,1.25V16.667a1.251,1.251,0,0,1-1.25,1.25H15.833v.833h7.083A2.086,2.086,0,0,0,25,16.667V2.083A2.086,2.086,0,0,0,22.917,0H2.083A2.086,2.086,0,0,0,0,2.083V16.667A2.085,2.085,0,0,0,.7,18.229Z" transform="translate(0)" fill="#6768a6"/>
      <path id="Path_3725" data-name="Path 3725" d="M40,32h.833v.833H40Z" transform="translate(-37.917 -30.333)" fill="#6768a6"/>
      <path id="Path_3726" data-name="Path 3726" d="M72,32h.833v.833H72Z" transform="translate(-68.25 -30.333)" fill="#6768a6"/>
      <path id="Path_3727" data-name="Path 3727" d="M104,32h.833v.833H104Z" transform="translate(-98.583 -30.333)" fill="#6768a6"/>
      <path id="Path_3728" data-name="Path 3728" d="M40,64H60.833v.833H40Z" transform="translate(-37.917 -60.667)" fill="#6768a6"/>
      <path id="Path_3729" data-name="Path 3729" d="M330.917,112a2.917,2.917,0,1,0,2.917,2.917A2.917,2.917,0,0,0,330.917,112Zm0,5A2.083,2.083,0,1,1,333,114.917,2.083,2.083,0,0,1,330.917,117Z" transform="translate(-310.917 -106.167)" fill="#6768a6"/>
      <path id="Path_3730" data-name="Path 3730" d="M356.843,146.343l-1.372,1.372-.539-.539-.589.589.833.833a.417.417,0,0,0,.589,0l1.667-1.667Z" transform="translate(-335.888 -138.721)" fill="#6768a6"/>
      <path id="Path_3731" data-name="Path 3731" d="M344,240h4.167v.833H344Z" transform="translate(-326.083 -227.5)" fill="#6768a6"/>
      <path id="Path_3732" data-name="Path 3732" d="M344,272h4.167v.833H344Z" transform="translate(-326.083 -257.833)" fill="#6768a6"/>
      <path id="Path_3733" data-name="Path 3733" d="M186.917,112a2.917,2.917,0,1,0,2.917,2.917A2.917,2.917,0,0,0,186.917,112Zm0,5A2.083,2.083,0,1,1,189,114.917,2.083,2.083,0,0,1,186.917,117Z" transform="translate(-174.417 -106.167)" fill="#6768a6"/>
      <path id="Path_3734" data-name="Path 3734" d="M212.843,146.343l-1.372,1.372-.539-.539-.589.589.833.833a.417.417,0,0,0,.589,0l1.667-1.667Z" transform="translate(-199.388 -138.721)" fill="#6768a6"/>
      <path id="Path_3735" data-name="Path 3735" d="M200,240h4.167v.833H200Z" transform="translate(-189.584 -227.5)" fill="#6768a6"/>
      <path id="Path_3736" data-name="Path 3736" d="M200,272h4.167v.833H200Z" transform="translate(-189.584 -257.833)" fill="#6768a6"/>
      <path id="Path_3737" data-name="Path 3737" d="M42.917,112.827a2.082,2.082,0,0,1,1.737.933l.694-.461A2.916,2.916,0,0,0,40,114.91a2.947,2.947,0,0,0,.04.486l.822-.138a2.108,2.108,0,0,1-.029-.348A2.086,2.086,0,0,1,42.917,112.827Z" transform="translate(-37.917 -106.16)" fill="#6768a6"/>
      <path id="Path_3738" data-name="Path 3738" d="M.417,176.633H12.083a.413.413,0,0,0,.192-.047,4.1,4.1,0,0,0,2.991-2.036H17.5a.417.417,0,0,0,.295-.122l.539-.539.539.539a.417.417,0,0,0,.295.122H20a.417.417,0,0,0,.295-.122l.539-.539.539.539a.417.417,0,0,0,.295.122H22.5a.417.417,0,0,0,.347-.186l.833-1.25a.417.417,0,0,0,0-.462l-.833-1.25a.417.417,0,0,0-.347-.186H15.266a4.143,4.143,0,0,0-3.6-2.083,3.729,3.729,0,0,0-2.082.633l-.285-.113a1,1,0,0,1-.115-.053l-.01-.005a1.539,1.539,0,0,1-.449-2.4,3.32,3.32,0,0,0,.858-2.229V163.42a3.488,3.488,0,0,0-1.915-3.128,3.163,3.163,0,0,0-1.313-.326,3.27,3.27,0,0,0-1.266.209,3.164,3.164,0,0,0-.946.544,3.344,3.344,0,0,0-1.227,2.58v1.667a3.342,3.342,0,0,0,.858,2.23,1.539,1.539,0,0,1,.127,1.889l-.005.008a1.411,1.411,0,0,1-.569.5l-.013.007a1,1,0,0,1-.115.053l-.005,0-1.889.755A2.08,2.08,0,0,0,0,172.345v3.871a.417.417,0,0,0,.417.417Zm11.25-6.667a3.267,3.267,0,0,1,2.947,1.823.417.417,0,0,0,.386.26h7.277l.556.833-.556.833h-.438L21.128,173a.417.417,0,0,0-.589,0l-.711.711h-.488L18.628,173a.417.417,0,0,0-.589,0l-.711.711H15a.417.417,0,0,0-.386.26,3.267,3.267,0,0,1-2.947,1.823,2.917,2.917,0,1,1,0-5.833ZM.833,172.345a1.249,1.249,0,0,1,.784-1.163l1.885-.753a1.814,1.814,0,0,0,.2-.092,2.266,2.266,0,0,0,.889-.785,2.372,2.372,0,0,0-.2-2.914,2.439,2.439,0,0,1-.4-.6l0,0a2.434,2.434,0,0,1-.242-1.069V163.3a2.511,2.511,0,0,1,.919-1.934l.008-.006a2.34,2.34,0,0,1,.7-.4,2.44,2.44,0,0,1,.948-.157,2.338,2.338,0,0,1,.971.241,2.65,2.65,0,0,1,1.45,2.38v1.546a2.488,2.488,0,0,1-.642,1.67,2.372,2.372,0,0,0,.687,3.7c.028.015.056.028.084.042a3.743,3.743,0,0,0,.275,5.286q.078.07.159.136H.833Z" transform="translate(0 -151.633)" fill="#6768a6"/>
      <path id="Path_3739" data-name="Path 3739" d="M185.25,386.5a1.25,1.25,0,1,0-1.25-1.25A1.25,1.25,0,0,0,185.25,386.5Zm0-1.667a.417.417,0,1,1-.417.417A.417.417,0,0,1,185.25,384.833Z" transform="translate(-174.417 -364)" fill="#6768a6"/>
    </g>
  </g>
</svg>
