<svg xmlns="http://www.w3.org/2000/svg" xmlns:xlink="http://www.w3.org/1999/xlink" width="60" height="60" viewBox="0 0 60 60">
  <defs>
    <clipPath id="category-image">
      <rect id="Rectangle_896" data-name="Rectangle 896" width="60" height="60" transform="translate(0 37)" fill="#fffffb"/>
    </clipPath>
  </defs>
  <g id="gallary" transform="translate(0 -37)" clip-path="url(#category-image)">
    <g id="gallary-2" data-name="gallary" transform="translate(-0.491 -976.643)">
      <g id="Group_3537" data-name="Group 3537" transform="translate(2.991 1022.331)">
        <path id="Path_4043" data-name="Path 4043" d="M11.875,5.969a4.372,4.372,0,0,0-4.213,3.6H7.33a4.331,4.331,0,0,0-4.323,4.323V41.387a.887.887,0,0,0,0,.333v2.55A4.331,4.331,0,0,0,7.33,48.593H50.12a4.331,4.331,0,0,0,4.323-4.323v-.942a4.337,4.337,0,0,0,3.547-4.268V10.348a4.379,4.379,0,0,0-4.323-4.379Zm0,1.774H53.668a2.57,2.57,0,0,1,2.55,2.605V39.059A2.481,2.481,0,0,1,54.444,41.5V25.867a.887.887,0,0,0,0-.776v-11.2A4.331,4.331,0,0,0,50.12,9.572H9.492A2.517,2.517,0,0,1,11.875,7.742Zm-4.545,3.6H50.12a2.523,2.523,0,0,1,2.55,2.55V25.036L39.977,32.962l-1.5-5.875a.887.887,0,0,0-1.386-.5L23.737,36.62l-3.049-6.152a.887.887,0,0,0-1.275-.388L4.781,39.835V13.895A2.523,2.523,0,0,1,7.33,11.345Zm8.092,5.266a4.448,4.448,0,0,0-4.434,4.434,4.5,4.5,0,0,0,4.434,4.49,4.543,4.543,0,0,0,4.49-4.49A4.5,4.5,0,0,0,15.423,16.611Zm0,1.829a2.6,2.6,0,0,1,2.661,2.605,2.647,2.647,0,0,1-2.661,2.661,2.6,2.6,0,0,1-2.605-2.661A2.554,2.554,0,0,1,15.423,18.44Zm37.247,8.7V44.269a2.523,2.523,0,0,1-2.55,2.55H7.33a2.523,2.523,0,0,1-2.55-2.55V41.941l14.744-9.811,3.1,6.208a.887.887,0,0,0,1.33.333L37.095,28.8l1.441,5.82a.887.887,0,0,0,1.33.5Z" transform="translate(-2.991 -5.969)" fill="#6768a6"/>
      </g>
    </g>
  </g>
</svg>
