<svg xmlns="http://www.w3.org/2000/svg" xmlns:xlink="http://www.w3.org/1999/xlink" width="60" height="60" viewBox="0 0 60 60">
  <defs>
    <clipPath id="category-video">
      <rect id="Rectangle_897" data-name="Rectangle 897" width="60" height="60" transform="translate(0 37)" fill="#fffffb"/>
    </clipPath>
  </defs>
  <g id="video-2" transform="translate(0 -37)" clip-path="url(#category-video)">
    <g id="video" transform="translate(-2 34.1)">
      <path id="Path_4044" data-name="Path 4044" d="M54.5,5.9h-44A5.447,5.447,0,0,0,5,11.4V40.44a5.447,5.447,0,0,0,5.5,5.5h44a5.447,5.447,0,0,0,5.5-5.5V11.4A5.516,5.516,0,0,0,54.5,5.9Zm3.3,34.54a3.241,3.241,0,0,1-3.3,3.3h-44a3.241,3.241,0,0,1-3.3-3.3V11.4a3.241,3.241,0,0,1,3.3-3.3h44a3.241,3.241,0,0,1,3.3,3.3Z" fill="#6768a6"/>
      <path id="Path_4045" data-name="Path 4045" d="M38,22.765l-8.03-5.72a2.735,2.735,0,0,0-2.75-.22,2.565,2.565,0,0,0-1.43,2.31v11.33a2.565,2.565,0,0,0,1.43,2.31,2.217,2.217,0,0,0,1.21.33,2.525,2.525,0,0,0,1.54-.44l8.14-5.61a2.659,2.659,0,0,0,1.1-2.09A2.41,2.41,0,0,0,38,22.765Zm-1.21,2.42-8.14,5.61c-.22.11-.33.11-.44,0-.11,0-.22-.11-.22-.33V19.245c0-.22.11-.33.22-.33h.22c.11,0,.11,0,.22.11l8.14,5.61c.11.11.22.22.22.33ZM11.05,48.395a1.039,1.039,0,0,0-1.1,1.1v2.53H6.1a1.1,1.1,0,1,0,0,2.2H9.95v2.53a1.039,1.039,0,0,0,1.1,1.1,1.039,1.039,0,0,0,1.1-1.1v-2.53H58.9a1.1,1.1,0,0,0,0-2.2H12.15v-2.53A1.1,1.1,0,0,0,11.05,48.395Z" transform="translate(0 1.065)" fill="#6768a6"/>
    </g>
  </g>
</svg>
