<svg xmlns="http://www.w3.org/2000/svg" xmlns:xlink="http://www.w3.org/1999/xlink" width="60" height="60" viewBox="0 0 60 60">
  <defs>
    <clipPath id="category-image">
      <rect id="Rectangle_874" data-name="Rectangle 874" width="60" height="60" transform="translate(0 37)" fill="#fffffb"/>
    </clipPath>
  </defs>
  <g id="image" transform="translate(0 -37)" clip-path="url(#category-image)">
    <g id="Group_3469" data-name="Group 3469" transform="translate(0 45.997)">
      <rect id="Rectangle_873" data-name="Rectangle 873" width="58.406" height="3.636" transform="translate(0.723 7.087)" fill="#f6f7fd"/>
      <path id="Path_3881" data-name="Path 3881" d="M91.425,164.853H39.555a3.267,3.267,0,0,1-3.268-3.267v6.376a3.267,3.267,0,0,0,3.268,3.267h51.87a3.267,3.267,0,0,0,3.268-3.267v-6.376A3.267,3.267,0,0,1,91.425,164.853Z" transform="translate(-35.564 -128.98)" fill="#f6f7fd"/>
      <g id="Group_3467" data-name="Group 3467" transform="translate(13.602 21.494)">
        <path id="Path_3882" data-name="Path 3882" d="M109.948,54.936h.548V51.457h-2.241a.246.246,0,0,0-.246.246V54.69a.246.246,0,0,0,.246.246h.428l.906,1.855a.484.484,0,0,0,.89-.376Z" transform="translate(-106.92 -50.086)" fill="#fb8888"/>
        <path id="Path_3883" data-name="Path 3883" d="M128.084,43.511l-3.3,1.213v3.765l3.3,1.213a.246.246,0,0,0,.331-.231V43.742a.246.246,0,0,0-.331-.231Z" transform="translate(-120.809 -43.496)" fill="#fb8888"/>
        <path id="Path_3884" data-name="Path 3884" d="M101.687,57.942v.665a.349.349,0,0,0,.349.349h.339V57.593h-.339a.349.349,0,0,0-.349.349Z" transform="translate(-101.687 -55.165)" fill="#fb8888"/>
        <path id="Path_3885" data-name="Path 3885" d="M148.176,55.3v2.155a1.057,1.057,0,0,0,1.057-1.057v-.041A1.057,1.057,0,0,0,148.176,55.3Z" transform="translate(-140.168 -53.267)" fill="#fb8888"/>
      </g>
      <g id="Group_3468" data-name="Group 3468">
        <path id="Path_3886" data-name="Path 3886" d="M89.722,59.506H75.775a.8.8,0,1,0,0,1.594H89.722a2.474,2.474,0,0,1,2.471,2.471v5.8H35.381v-5.8a2.473,2.473,0,0,1,2.47-2.471H52.026a.8.8,0,1,0,0-1.594H37.851a4.069,4.069,0,0,0-4.064,4.065V98.424a4.069,4.069,0,0,0,4.064,4.064H89.722a4.069,4.069,0,0,0,4.065-4.064V63.571A4.069,4.069,0,0,0,89.722,59.506Zm0,41.388H37.851a2.473,2.473,0,0,1-2.47-2.47V70.962H92.193V98.424a2.473,2.473,0,0,1-2.471,2.47Z" transform="translate(-33.787 -59.503)" fill="#846f75"/>
        <path id="Path_3887" data-name="Path 3887" d="M48.5,73.031a2.271,2.271,0,1,0,2.271-2.271A2.271,2.271,0,0,0,48.5,73.031Zm2.949,0a.677.677,0,1,1-.677-.677.677.677,0,0,1,.677.677Z" transform="translate(-43.883 -67.108)" fill="#6768a6"/>
        <path id="Path_3888" data-name="Path 3888" d="M178.963,73.031a2.271,2.271,0,1,0-2.271,2.271,2.271,2.271,0,0,0,2.271-2.271Zm-2.949,0a.677.677,0,1,1,.677.677.677.677,0,0,1-.677-.677Z" transform="translate(-129.662 -67.108)" fill="#6768a6"/>
        <path id="Path_3889" data-name="Path 3889" d="M197.822,73.031A2.271,2.271,0,1,0,195.55,75.3a2.271,2.271,0,0,0,2.272-2.269Zm-2.949,0a.677.677,0,1,1,.677.677.677.677,0,0,1-.677-.677Z" transform="translate(-142.509 -67.108)" fill="#6768a6"/>
        <path id="Path_3890" data-name="Path 3890" d="M103.858,119.662H64.382a.8.8,0,0,0-.8.8v9.99a.8.8,0,0,0,.8.8H78.84a.8.8,0,0,0,0-1.594H65.179v-8.4h37.882v8.4H96.385a.8.8,0,1,0,0,1.594h7.473a.8.8,0,0,0,.8-.8v-9.99a.8.8,0,0,0-.8-.8Z" transform="translate(-54.16 -100.42)" fill="#fb8888"/>
        <path id="Path_3891" data-name="Path 3891" d="M129.247,139.5l2.021-1.356a1.35,1.35,0,0,0-.438-2.434l-9.619-2.3a1.35,1.35,0,0,0-1.627,1.627l2.3,9.619a1.35,1.35,0,0,0,2.434.437l1.355-2.021L129.7,147.1a1.35,1.35,0,0,0,1.909,0l1.662-1.662a1.35,1.35,0,0,0,0-1.909Zm1.41,6.3-4.539-4.539a.8.8,0,0,0-.564-.233h-.077a.8.8,0,0,0-.584.349l-1.586,2.363-2.08-8.691,8.691,2.08-2.363,1.585a.8.8,0,0,0-.12,1.225l4.539,4.54Z" transform="translate(-92.281 -109.762)" fill="#6768a6"/>
        <path id="Path_3892" data-name="Path 3892" d="M89.722,59.506H37.852a4.069,4.069,0,0,0-4.065,4.065V98.424a4.069,4.069,0,0,0,4.065,4.064h51.87a4.069,4.069,0,0,0,4.065-4.064V63.571A4.069,4.069,0,0,0,89.722,59.506ZM37.852,61.1h51.87a2.474,2.474,0,0,1,2.471,2.471v5.8H35.381v-5.8A2.474,2.474,0,0,1,37.852,61.1Zm51.871,39.794H37.852a2.473,2.473,0,0,1-2.471-2.47V70.962H92.193V98.424a2.473,2.473,0,0,1-2.471,2.47Z" transform="translate(-33.787 -59.503)" fill="#6768a6"/>
      </g>
    </g>
  </g>
</svg>
