<svg xmlns="http://www.w3.org/2000/svg" xmlns:xlink="http://www.w3.org/1999/xlink" width="60" height="60" viewBox="0 0 60 60">
  <defs>
    <clipPath id="category-display">
      <rect id="Rectangle_895" data-name="Rectangle 895" width="60" height="60" transform="translate(0 37)" fill="#fffffb"/>
    </clipPath>
  </defs>
  <g id="Display" transform="translate(0 -37)" clip-path="url(#category-display)">
    <g id="Display_Advertising" data-name="Display Advertising" transform="translate(0 45)">
      <rect id="Rectangle_894" data-name="Rectangle 894" width="41.748" height="2.355" transform="translate(8.341 33.251)" fill="#8ff4d2" opacity="0.499"/>
      <g id="Group_3512" data-name="Group 3512">
        <path id="Path_3984" data-name="Path 3984" d="M214.155,45.965a.656.656,0,0,1,.655.655V59.287a.655.655,0,0,0,1.31,0V46.62a1.967,1.967,0,0,0-1.965-1.965.655.655,0,0,0,0,1.31Z" transform="translate(-161.883 -37.87)" fill="#6768a6"/>
        <path id="Path_3985" data-name="Path 3985" d="M33.155,75.049a.655.655,0,0,0,.655-.655V46.62a.656.656,0,0,1,.655-.655H51.5a.655.655,0,0,0,0-1.31H34.465A1.967,1.967,0,0,0,32.5,46.62V74.394A.655.655,0,0,0,33.155,75.049Z" transform="translate(-28.308 -37.87)" fill="#6768a6"/>
        <path id="Path_3986" data-name="Path 3986" d="M60.419,57.155H46.488a.655.655,0,0,0-.655.655V82.7a.655.655,0,0,0,.655.655H88.236a.655.655,0,0,0,0-1.31H47.143V58.465H60.419a.655.655,0,1,0,0-1.31Z" transform="translate(-38.147 -47.095)" fill="#6768a6"/>
        <path id="Path_3987" data-name="Path 3987" d="M72.134,164.655H19.295a2.795,2.795,0,0,0,0,5.59h52.84a2.795,2.795,0,0,0,0-5.59Zm0,4.279H19.295a1.485,1.485,0,0,1,0-2.97h52.84a1.485,1.485,0,1,1,0,2.97Z" transform="translate(-16.5 -126.428)" fill="#6768a6"/>
        <path id="Path_3988" data-name="Path 3988" d="M209.855,114.59l-5.921-5.921a2.561,2.561,0,0,0-3.622,0l-1.347,1.348a2.563,2.563,0,0,0,0,3.621l5.921,5.921a2.561,2.561,0,0,0,3.622,0l1.347-1.348A2.564,2.564,0,0,0,209.855,114.59Zm-.926,2.7-1.347,1.348a1.251,1.251,0,0,1-1.769,0l-5.921-5.921a1.251,1.251,0,0,1,0-1.769l1.348-1.348a1.251,1.251,0,0,1,1.769,0l5.921,5.921a1.25,1.25,0,0,1,0,1.769Z" transform="translate(-150.604 -84.558)" fill="#6768a6"/>
        <path id="Path_3989" data-name="Path 3989" d="M132.451,31.716a10.442,10.442,0,1,0,10.443,10.442A10.454,10.454,0,0,0,132.451,31.716Zm0,19.575a9.132,9.132,0,1,1,9.133-9.132A9.143,9.143,0,0,1,132.451,51.291Z" transform="translate(-94.364 -28.321)" fill="#6768a6"/>
        <path id="Path_3990" data-name="Path 3990" d="M122.89,46.434a13.716,13.716,0,0,0,7.806-2.41l.469.469a.655.655,0,0,0,.926-.926l-.861-.862a.655.655,0,0,0-.855-.062,12.526,12.526,0,1,1,2.562-2.562.655.655,0,0,0,.062.855l.861.862a.655.655,0,1,0,.926-.926l-.469-.469a13.838,13.838,0,1,0-11.427,6.031Z" transform="translate(-84.803 -18.76)" fill="#6768a6"/>
        <path id="Path_3991" data-name="Path 3991" d="M60.155,83.477h9.17a.655.655,0,1,0,0-1.31h-9.17a.655.655,0,1,0,0,1.31Z" transform="translate(-48.233 -65.553)" fill="#6768a6"/>
        <path id="Path_3992" data-name="Path 3992" d="M70.636,104.655H60.155a.655.655,0,1,0,0,1.31H70.636a.655.655,0,0,0,0-1.31Z" transform="translate(-48.233 -82.149)" fill="#6768a6"/>
        <path id="Path_3993" data-name="Path 3993" d="M93.976,117.167H85.155a.655.655,0,1,0,0,1.31h8.821a.655.655,0,1,0,0-1.31Z" transform="translate(-66.683 -91.383)" fill="#6768a6"/>
        <path id="Path_3994" data-name="Path 3994" d="M60.155,118.477H63.6a.655.655,0,1,0,0-1.31h-3.45a.655.655,0,1,0,0,1.31Z" transform="translate(-48.233 -91.383)" fill="#6768a6"/>
        <path id="Path_3995" data-name="Path 3995" d="M60.155,130.989h6.9a.655.655,0,0,0,0-1.31h-6.9a.655.655,0,1,0,0,1.31Z" transform="translate(-48.233 -100.617)" fill="#6768a6"/>
        <path id="Path_3996" data-name="Path 3996" d="M95.833,130.334a.655.655,0,0,0,.655.655h6.9a.655.655,0,1,0,0-1.31h-6.9A.655.655,0,0,0,95.833,130.334Z" transform="translate(-75.047 -100.617)" fill="#6768a6"/>
      </g>
      <path id="Path_3997" data-name="Path 3997" d="M148.316,66.516h.663V62.309H146.27a.3.3,0,0,0-.3.3v3.611a.3.3,0,0,0,.3.3h.517l1.1,2.243a.585.585,0,0,0,1.077-.455Z" transform="translate(-112.049 -50.899)" fill="#fb8888"/>
      <path id="Path_3998" data-name="Path 3998" d="M163.3,56l-3.986,1.467v4.552l3.986,1.467a.3.3,0,0,0,.4-.28V56.278A.3.3,0,0,0,163.3,56Z" transform="translate(-121.892 -46.228)" fill="#fb8888"/>
      <path id="Path_3999" data-name="Path 3999" d="M140.946,67.608v.8a.422.422,0,0,0,.422.422h.41V67.186h-.41A.422.422,0,0,0,140.946,67.608Z" transform="translate(-108.339 -54.498)" fill="#fb8888"/>
      <path id="Path_4000" data-name="Path 4000" d="M177.9,65.364V67.97a1.278,1.278,0,0,0,1.278-1.278v-.05A1.278,1.278,0,0,0,177.9,65.364Z" transform="translate(-135.612 -53.153)" fill="#fb8888"/>
    </g>
  </g>
</svg>
