<svg xmlns="http://www.w3.org/2000/svg" xmlns:xlink="http://www.w3.org/1999/xlink" width="60" height="60" viewBox="0 0 60 60">
  <defs>
    <clipPath id="category-video">
      <rect id="Rectangle_872" data-name="Rectangle 872" width="60" height="60" transform="translate(0 37)" fill="#fffffb"/>
    </clipPath>
  </defs>
  <g id="video" transform="translate(0 -37)" clip-path="url(#category-video)">
    <g id="Group_3466" data-name="Group 3466" transform="translate(0 37)">
      <path id="Path_3864" data-name="Path 3864" d="M153.4,201.4a5.8,5.8,0,0,1-5.029-2.9,5.806,5.806,0,1,0,10.059,0,5.8,5.8,0,0,1-5.03,2.9Z" transform="translate(-110.903 -148.769)" fill="#f6f7fd"/>
      <path id="Path_3865" data-name="Path 3865" d="M80.209,201.4a5.8,5.8,0,0,1-5.03-2.9,5.807,5.807,0,1,0,10.059,0,5.8,5.8,0,0,1-5.029,2.9Z" transform="translate(-62.709 -148.769)" fill="#f6f7fd"/>
      <path id="Path_3866" data-name="Path 3866" d="M93.626,152.879H50a7.332,7.332,0,0,1-7.333-7.333v5.373A7.332,7.332,0,0,0,50,158.251H93.626a7.332,7.332,0,0,0,7.332-7.332v-5.372a7.332,7.332,0,0,1-7.332,7.332Z" transform="translate(-41.812 -113.902)" fill="#f6f7fd"/>
      <g id="Group_3465" data-name="Group 3465" transform="translate(0 0)">
        <path id="Path_3867" data-name="Path 3867" d="M99.312,84.922a.854.854,0,0,0-.854.854v15.9a6.486,6.486,0,0,1-6.478,6.479H48.352a6.486,6.486,0,0,1-6.479-6.479V78.944a6.486,6.486,0,0,1,6.479-6.479H72.13a.854.854,0,0,0,0-1.708H48.352a8.2,8.2,0,0,0-8.186,8.186v22.73a8.2,8.2,0,0,0,8.186,8.186H91.98a8.2,8.2,0,0,0,8.186-8.186v-15.9A.854.854,0,0,0,99.312,84.922Z" transform="translate(-40.166 -64.657)" fill="#6768a6"/>
        <path id="Path_3868" data-name="Path 3868" d="M108.526,102.63a2.351,2.351,0,0,0-1.253,2.082v12.8a2.356,2.356,0,0,0,3.679,1.951l9.445-6.4a2.357,2.357,0,0,0,0-3.9l-9.445-6.4A2.351,2.351,0,0,0,108.526,102.63Zm11.2,8.484a.643.643,0,0,1-.285.537l-9.445,6.4a.649.649,0,0,1-1.013-.537v-12.8a.635.635,0,0,1,.345-.573.672.672,0,0,1,.31-.078.628.628,0,0,1,.358.115l9.445,6.4a.642.642,0,0,1,.283.536Z" transform="translate(-84.352 -85.462)" fill="#6768a6"/>
        <path id="Path_3869" data-name="Path 3869" d="M111.631,195.708h10.058a.854.854,0,0,0,0-1.708H111.631a.854.854,0,1,0,0,1.708Z" transform="translate(-86.659 -145.805)" fill="#6768a6"/>
        <path id="Path_3870" data-name="Path 3870" d="M121.689,215H111.631a.854.854,0,1,0,0,1.708h10.058a.854.854,0,0,0,0-1.708Z" transform="translate(-86.659 -159.633)" fill="#6768a6"/>
        <path id="Path_3871" data-name="Path 3871" d="M50.2,201.173H41.875v-5.465H50.2a.854.854,0,0,0,0-1.708H41.021a.854.854,0,0,0-.854.854v7.173a.854.854,0,0,0,.854.854H50.2a.854.854,0,0,0,0-1.708Z" transform="translate(-40.167 -145.805)" fill="#6768a6"/>
        <path id="Path_3872" data-name="Path 3872" d="M194,194h-9.175a.854.854,0,1,0,0,1.708h8.321v5.465h-8.321a.854.854,0,1,0,0,1.708H194a.854.854,0,0,0,.854-.854v-7.173A.854.854,0,0,0,194,194Z" transform="translate(-134.853 -145.805)" fill="#6768a6"/>
        <path id="Path_3873" data-name="Path 3873" d="M78.563,187.5a6.66,6.66,0,1,0,6.66,6.66,6.66,6.66,0,0,0-6.66-6.66Zm0,11.613a4.953,4.953,0,1,1,4.953-4.953,4.953,4.953,0,0,1-4.953,4.953Z" transform="translate(-61.063 -141.525)" fill="#6768a6"/>
        <path id="Path_3874" data-name="Path 3874" d="M151.757,187.5a6.66,6.66,0,1,0,6.66,6.66,6.66,6.66,0,0,0-6.66-6.66Zm0,11.613a4.953,4.953,0,1,1,4.953-4.953,4.953,4.953,0,0,1-4.953,4.953Z" transform="translate(-109.257 -141.525)" fill="#6768a6"/>
        <g id="Group_3464" data-name="Group 3464" transform="translate(35 0)">
          <path id="Path_3875" data-name="Path 3875" d="M113.277,60.911h1.489V51.457h-6.088a.669.669,0,0,0-.669.669v8.115a.669.669,0,0,0,.669.669h1.162l2.461,5.039a1.315,1.315,0,0,0,2.419-1.022Z" transform="translate(-105.05 -47.732)" fill="#fb8888"/>
          <path id="Path_3876" data-name="Path 3876" d="M133.744,43.538l-8.956,3.3V57.063l8.956,3.3a.669.669,0,0,0,.9-.628V44.166a.67.67,0,0,0-.9-.628Z" transform="translate(-113.976 -43.497)" fill="#fb8888"/>
          <path id="Path_3877" data-name="Path 3877" d="M101.687,58.541v1.806a.948.948,0,0,0,.948.948h.922V57.6h-.922a.949.949,0,0,0-.948.946Z" transform="translate(-101.687 -50.996)" fill="#fb8888"/>
          <path id="Path_3878" data-name="Path 3878" d="M148.176,55.3v5.856a2.872,2.872,0,0,0,2.872-2.872v-.111A2.873,2.873,0,0,0,148.176,55.3Z" transform="translate(-126.418 -49.777)" fill="#fb8888"/>
        </g>
      </g>
      <path id="Path_3879" data-name="Path 3879" d="M84.276,204.942a.853.853,0,0,1-.64-.289l-1.825-2.069a.854.854,0,1,1,1.28-1.13l1.18,1.338,2.585-2.975a.854.854,0,1,1,1.289,1.12l-3.225,3.712a.854.854,0,0,1-.641.294Z" transform="translate(-67.446 -149.442)" fill="#fb8888"/>
      <path id="Path_3880" data-name="Path 3880" d="M156.586,204.942a.854.854,0,0,1-.64-.289l-1.826-2.069a.854.854,0,1,1,1.28-1.13l1.18,1.338,2.585-2.975a.854.854,0,1,1,1.289,1.12l-3.225,3.712a.853.853,0,0,1-.641.294Z" transform="translate(-115.058 -149.442)" fill="#fb8888"/>
    </g>
  </g>
</svg>
