<svg xmlns="http://www.w3.org/2000/svg" xmlns:xlink="http://www.w3.org/1999/xlink" width="20" height="20" viewBox="0 0 20 20">
  <defs>
    <clipPath id="crown">
      <rect id="Rectangle_851" data-name="Rectangle 851" width="20" height="20" transform="translate(300)" fill="none"/>
    </clipPath>
  </defs>
  <g id="crown" transform="translate(-300)" clip-path="url(#crown)">
    <path id="crown-3" d="M3.212,21.742H16.788a.441.441,0,0,0,.413-.458V20.158H2.8v1.125A.416.416,0,0,0,3.212,21.742ZM17.875,8.408a1.171,1.171,0,0,0-1.125,1.25,1.2,1.2,0,0,0,.337.875l-3.375,3.833L10.525,8.033a1.274,1.274,0,0,0,.563-1.083,1.131,1.131,0,1,0-2.25,0A1.274,1.274,0,0,0,9.4,8.033L6.213,14.367,2.838,10.533a1.022,1.022,0,0,0,.412-.875,1.171,1.171,0,0,0-1.125-1.25A1.171,1.171,0,0,0,1,9.658a1.171,1.171,0,0,0,1.125,1.25H2.2l.6,7.963H17.087l.712-7.963h.075A1.171,1.171,0,0,0,19,9.658,1.2,1.2,0,0,0,17.875,8.408Z" transform="translate(300 -3.721)" fill="#f2cb07"/>
  </g>
</svg>
