<svg xmlns="http://www.w3.org/2000/svg" xmlns:xlink="http://www.w3.org/1999/xlink" width="25" height="25" viewBox="0 0 25 25">
  <defs>
    <clipPath id="icon-education">
      <rect id="Rectangle_5" data-name="Rectangle 5" width="25" height="25" transform="translate(299.786 225.212)" fill="#6768a6"/>
    </clipPath>
  </defs>
  <g id="education" transform="translate(-299.786 -225.212)" clip-path="url(#icon-education)">
    <g id="education-2" transform="translate(284.035 219.913)">
      <path id="Path_4120" data-name="Path 4120" d="M68.946,9.338V8.564a1.745,1.745,0,0,1,.147-.879A1.321,1.321,0,0,1,70.3,7H85.643a1.862,1.862,0,0,1,.691.083,1.3,1.3,0,0,1,.82,1.239c0,.5,0,.99,0,1.487V27.3a1.3,1.3,0,0,1-.939,1.266,2.177,2.177,0,0,1-.6.046H70.273a1.308,1.308,0,0,1-1.243-.792A2.12,2.12,0,0,1,68.937,27V26.27a.346.346,0,0,0-.691,0,4.735,4.735,0,0,0,.161,1.837,1.988,1.988,0,0,0,1.823,1.188c.548.009,1.091,0,1.639,0H85.657a2.436,2.436,0,0,0,.907-.129,1.992,1.992,0,0,0,1.271-1.856c0-.451,0-.907,0-1.358V8.293A1.993,1.993,0,0,0,86.449,6.4a5.953,5.953,0,0,0-1.718-.087H70.715c-.166,0-.332,0-.493,0a1.977,1.977,0,0,0-1.86,1.317,5.257,5.257,0,0,0-.106,1.7.346.346,0,0,0,.691,0Z" transform="translate(-48.159)" fill="#6768a6" stroke="#6768a6" stroke-width="0.3"/>
      <path id="Path_4121" data-name="Path 4121" d="M69.391,131.754V119.86a.346.346,0,0,0-.691,0v11.894a.346.346,0,0,0,.691,0Z" transform="translate(-48.603 -108.012)" fill="#6768a6" stroke="#6768a6" stroke-width="0.3"/>
      <path id="Path_4122" data-name="Path 4122" d="M21.8,47.591H19.991c-.23,0-.465,0-.7,0a.849.849,0,0,1-.843-.843.884.884,0,0,1,.658-.962,3.1,3.1,0,0,1,.686-.018c.658,0,1.322,0,1.98,0a.849.849,0,0,1,.87.81.891.891,0,0,1-.843,1.013c-.442.014-.447.7,0,.691a1.555,1.555,0,0,0,1.487-1.165,1.664,1.664,0,0,0-.516-1.69,1.781,1.781,0,0,0-1.193-.35H20.295c-.332,0-.658,0-.99,0A1.545,1.545,0,0,0,17.886,46a1.723,1.723,0,0,0,.258,1.768,1.613,1.613,0,0,0,1.266.511H21.8A.343.343,0,0,0,21.8,47.591Zm0,14.4H19.991c-.23,0-.465,0-.7,0a.849.849,0,0,1-.843-.843.884.884,0,0,1,.658-.962,3.1,3.1,0,0,1,.686-.018c.658,0,1.322,0,1.98,0a.849.849,0,0,1,.87.81.886.886,0,0,1-.843,1.013c-.442.014-.447.7,0,.691a1.555,1.555,0,0,0,1.487-1.165,1.664,1.664,0,0,0-.516-1.69,1.781,1.781,0,0,0-1.193-.35H20.295c-.332,0-.658,0-.99,0a1.552,1.552,0,0,0-1.418.921,1.723,1.723,0,0,0,.258,1.768,1.613,1.613,0,0,0,1.266.511H21.8A.343.343,0,0,0,21.8,61.995ZM24.2,44.46V60.986c0,.76-.032,1.524,0,2.284V63.3a.346.346,0,0,0,.691,0V46.776c0-.76.032-1.524,0-2.284V44.46a.346.346,0,0,0-.691,0Zm2.781,1.695h9.859a.346.346,0,0,0,0-.691H26.985a.346.346,0,0,0,0,.691Zm0,2.33h9.859a.346.346,0,0,0,0-.691H26.985a.346.346,0,0,0,0,.691Zm0,2.33h9.859a.346.346,0,0,0,0-.691H26.985a.346.346,0,0,0,0,.691Zm0,3.859h9.859a.346.346,0,0,0,0-.691H26.985a.346.346,0,0,0,0,.691Zm0,2.33h9.859a.346.346,0,0,0,0-.691H26.985a.346.346,0,0,0,0,.691Zm0,2.33h9.859a.346.346,0,0,0,0-.691H26.985a.346.346,0,0,0,0,.691Z" transform="translate(0 -36.084)" fill="#6768a6" stroke="#6768a6" stroke-width="0.3"/>
    </g>
  </g>
</svg>
