<svg xmlns="http://www.w3.org/2000/svg" xmlns:xlink="http://www.w3.org/1999/xlink" width="25" height="25" viewBox="0 0 25 25">
  <defs>
    <clipPath id="font">
      <rect id="Rectangle_884" data-name="Rectangle 884" width="25" height="25" transform="translate(0 0)" fill="#6768a6" stroke="#777" stroke-width="1"/>
    </clipPath>
    <clipPath id="font-2">
      <rect id="Rectangle_883" data-name="Rectangle 883" width="25" height="24.471" fill="#6768a6"/>
    </clipPath>
  </defs>
  <g id="fonts" clip-path="url(#font)">
    <g id="Group_3475" data-name="Group 3475" transform="translate(0 0.264)">
      <g id="Group_3474" data-name="Group 3474" transform="translate(0 0)" clip-path="url(#font-2)">
        <path id="Path_3917" data-name="Path 3917" d="M22.886,22.786a8.673,8.673,0,0,1-1.742-2.971L13.2.826h-.589L4.58,19.613a10.315,10.315,0,0,1-1.9,3.282,3.876,3.876,0,0,1-1.851.657v.986h7.49v-.986a4.34,4.34,0,0,1-2.146-.513,1.154,1.154,0,0,1-.5-.918,5.7,5.7,0,0,1,.573-1.986l1.548-3.6h8.061l1.38,3.283a6.976,6.976,0,0,1,.673,2.34,1.169,1.169,0,0,1-.48.942,3.371,3.371,0,0,1-1.843.455v.986h9.48v-.986a3.554,3.554,0,0,1-2.18-.766M11.975,7.627l2.806,6.685H9.1Z" transform="translate(-0.446 -0.446)" fill="#6768a6"/>
        <path id="Path_3918" data-name="Path 3918" d="M24.643,22.726a3.2,3.2,0,0,1-1.953-.673,8.4,8.4,0,0,1-1.641-2.831L13.1.233A.381.381,0,0,0,12.752,0h-.589a.381.381,0,0,0-.35.23L3.783,19.019a10.057,10.057,0,0,1-1.816,3.156,3.4,3.4,0,0,1-1.654.557A.38.38,0,0,0,0,23.106v.986a.38.38,0,0,0,.38.38H7.87a.38.38,0,0,0,.38-.38v-.986a.381.381,0,0,0-.353-.379,3.852,3.852,0,0,1-1.937-.431.758.758,0,0,1-.353-.62,5.184,5.184,0,0,1,.542-1.836L7.6,16.466h7.559l1.282,3.05a6.411,6.411,0,0,1,.644,2.193.8.8,0,0,1-.339.647,2.952,2.952,0,0,1-1.623.371.38.38,0,0,0-.361.379v.986a.38.38,0,0,0,.38.38h9.48a.38.38,0,0,0,.38-.38v-.986a.38.38,0,0,0-.357-.379m-.4.985H15.52v-.251a3.19,3.19,0,0,0,1.7-.514,1.559,1.559,0,0,0,.621-1.238,7.216,7.216,0,0,0-.7-2.488l-1.38-3.283a.38.38,0,0,0-.35-.233H7.348a.379.379,0,0,0-.349.23l-1.549,3.6a5.963,5.963,0,0,0-.6,2.137,1.518,1.518,0,0,0,.64,1.214,3.938,3.938,0,0,0,2,.566v.256H.76v-.291a3.581,3.581,0,0,0,1.732-.7,10.517,10.517,0,0,0,1.991-3.41L12.414.76H12.5l7.848,18.755a8.874,8.874,0,0,0,1.843,3.111,3.733,3.733,0,0,0,2.05.827Z" transform="translate(0 0)" fill="#6768a6"/>
        <path id="Path_3919" data-name="Path 3919" d="M24.289,20.942l-3.373-8.035a.38.38,0,0,0-.349-.233h0a.381.381,0,0,0-.349.23l-3.46,8.036a.38.38,0,0,0,.349.53h6.833a.379.379,0,0,0,.35-.527m-6.606-.233,2.879-6.685,2.806,6.685Z" transform="translate(-9.032 -6.844)" fill="#6768a6"/>
      </g>
    </g>
  </g>
</svg>
