<svg xmlns="http://www.w3.org/2000/svg" xmlns:xlink="http://www.w3.org/1999/xlink" width="25" height="25" viewBox="0 0 25 25">
  <defs>
    <clipPath id="clip-path">
      <rect id="Rectangle_5" data-name="Rectangle 5" width="25" height="25" transform="translate(300 224.211)" fill="#6768a6"/>
    </clipPath>
  </defs>
  <g id="global-education" transform="translate(-300 -224.211)" clip-path="url(#clip-path)">
    <path id="global-education-2" data-name="global-education" d="M21.288,4.047l3.517-.9L12.426,0,0,3.152,4.55,4.306V9.978l.355.13a9.2,9.2,0,1,0,14.421-.032l.268-.1V4.478l1.133-.291V6.208l-.515,1V9.493h1.7V7.175L21.3,6.2l-.013-2.15ZM12.425.851l9.038,2.3-9.038,2.3-9.072-2.3,9.072-2.3Zm-5.1,10.141c-.535-.076-1.088-.165-1.649-.268l-.257-.047.166-.2c.025-.03.051-.06.076-.09ZM3.708,15.254a8.44,8.44,0,0,1,1.191-3.8l.056-.092.106.021c.759.147,1.5.272,2.206.37l.171.024-.043.167a15.432,15.432,0,0,0-.453,3.327l0,.149H3.7l.011-.164Zm1.246,4.985L4.9,20.146a8.423,8.423,0,0,1-1.19-3.8L3.7,16.19H6.938l0,.145a15.417,15.417,0,0,0,.452,3.325l.043.166-.171.023c-.707.1-1.45.222-2.206.369Zm4.017,3.385a8.528,8.528,0,0,1-3.384-2.5l-.166-.2.258-.047c.638-.117,1.263-.216,1.856-.3l.125-.017.041.119a8.774,8.774,0,0,0,1.447,2.7l.385.47-.563-.229Zm2.791.59-.2-.048c-1.221-.3-2.335-1.583-3.051-3.507l-.072-.187.2-.02c.983-.1,1.984-.16,2.961-.176l.164,0v3.941Zm0-4.7-.16,0c-1.071.017-2.171.086-3.26.2l-.134.014L8.173,19.6A14.486,14.486,0,0,1,7.7,16.345L7.7,16.19h4.063v3.321ZM7.7,15.417l.005-.159a14.529,14.529,0,0,1,.468-3.264l.034-.128.132.014c.613.067,1.229.117,1.842.152l1.581.577v2.807H7.7Zm6.642-3.4c.525-.034,1.051-.079,1.576-.136l.132-.014.034.128a14.526,14.526,0,0,1,.468,3.264l.005.159H12.483V12.741ZM12.483,16.19h4.074l-.005.155a14.509,14.509,0,0,1-.468,3.262l-.034.127-.132-.015c-1.09-.119-2.2-.188-3.269-.2l-.165,0V16.19Zm.2,7.975-.2.048V20.272l.17,0c.976.016,1.976.075,2.96.176l.2.02-.074.187c-.716,1.924-1.832,3.2-3.052,3.507Zm5.981-3.039a8.527,8.527,0,0,1-3.383,2.5l-.563.229.385-.47a8.771,8.771,0,0,0,1.447-2.7l.041-.119.125.017c.594.08,1.218.179,1.856.3l.258.047Zm1.879-4.776a8.433,8.433,0,0,1-1.19,3.8l-.056.091-.106-.021c-.756-.147-1.5-.271-2.206-.37l-.171-.024.043-.168a15.384,15.384,0,0,0,.452-3.322l0-.145h3.24l-.011.159Zm0-1.1.011.164h-3.24l0-.149a15.428,15.428,0,0,0-.452-3.327l-.043-.167.171-.024c.707-.1,1.45-.222,2.206-.369l.106-.021.056.092a8.439,8.439,0,0,1,1.19,3.8Zm-1.879-4.78.165.2-.257.047c-.555.1-1.076.188-1.585.261l1.586-.618c.03.036.061.071.091.107Zm.1-1.065-6.47,2.52L5.374,9.4V4.515L12.426,6.3l6.343-1.615Z" transform="translate(300 224.211)" fill="#6768a6" stroke="#6768a6" stroke-width="0.2"/>
  </g>
</svg>
