<svg xmlns="http://www.w3.org/2000/svg" xmlns:xlink="http://www.w3.org/1999/xlink" width="25" height="25" viewBox="0 0 25 25">
  <defs>
    <clipPath id="home">
      <rect id="Rectangle_836" data-name="Rectangle 836" width="25" height="25" transform="translate(300 224)" fill="#fffffb"/>
    </clipPath>
  </defs>
  <g id="home" transform="translate(-300 -224)" clip-path="url(#home)">
    <g id="_x32_2" transform="translate(300.001 223.655)">
      <path id="Path_3718" data-name="Path 3718" d="M20.667,25.3H15.061V16.357H9.924V25.3H4.333A1.367,1.367,0,0,1,2.966,23.93v-9.5H1.621a1.618,1.618,0,0,1-1.5-2.218,3.373,3.373,0,0,1,.871-1.277l9.95-8.953a2.223,2.223,0,0,1,3.122,0l9.946,8.952a3.384,3.384,0,0,1,.876,1.28,1.619,1.619,0,0,1-1.508,2.217H22.032v9.5A1.366,1.366,0,0,1,20.667,25.3Zm-4.486-1.12h4.486a.246.246,0,0,0,.246-.245l0-10.615h2.465a.5.5,0,0,0,.468-.685,2.272,2.272,0,0,0-.586-.861L13.312,2.818a1.111,1.111,0,0,0-1.625,0L1.738,11.77a2.275,2.275,0,0,0-.58.859.5.5,0,0,0,.464.686H4.153l-.067.62v10a.246.246,0,0,0,.247.245H8.8V15.237h7.377Z" fill="#6768a6"/>
    </g>
  </g>
</svg>
