<svg xmlns="http://www.w3.org/2000/svg" xmlns:xlink="http://www.w3.org/1999/xlink" width="25" height="25" viewBox="0 0 25 25">
  <defs>
    <clipPath id="key-icon">
      <rect id="Rectangle_3604" data-name="Rectangle 3604" width="25" height="25" fill="#6768a6"/>
    </clipPath>
  </defs>
  <g id="key" clip-path="url(#key-icon)">
    <path id="key-2" data-name="key" d="M24.627,7.2,23,5.582l1.63-1.619A1.153,1.153,0,1,0,23,2.334l-12.1,12.1a5.74,5.74,0,1,0,1.63,1.63l5.6-5.614,1.619,1.63a1.153,1.153,0,1,0,1.63-1.63l-1.63-1.561,1.63-1.63L23,8.888A1.173,1.173,0,1,0,24.627,7.2ZM7.74,22.664a3.444,3.444,0,1,1,3.444-3.444A3.444,3.444,0,0,1,7.74,22.664Z" transform="translate(-0.996 -0.98)" fill="#6768a6"/>
  </g>
</svg>
