<svg xmlns="http://www.w3.org/2000/svg" xmlns:xlink="http://www.w3.org/1999/xlink" width="25" height="25" viewBox="0 0 25 25">
  <defs>
    <clipPath id="list-icon">
      <rect id="Rectangle_3281" data-name="Rectangle 3281" width="25" height="25" transform="translate(594 125)" fill="#6768a6"/>
    </clipPath>
  </defs>
  <g id="list" transform="translate(-594 -125)" clip-path="url(#list-icon)">
    <path id="list-2" data-name="list" d="M2.581.794A1.8,1.8,0,0,0,.8,2.579l0,15.477a.6.6,0,0,0,1.192,0V2.579a.581.581,0,0,1,.6-.6H19.246a.581.581,0,0,1,.6.6V13.293a.6.6,0,1,0,1.19,0V2.579A1.8,1.8,0,0,0,19.246.794ZM6.152,5.555a.6.6,0,1,0,.6.6A.6.6,0,0,0,6.152,5.555Zm2.321,0a.6.6,0,0,0,.057,1.19h7.144a.6.6,0,0,0,0-1.19h-7.2ZM6.152,9.126a.6.6,0,1,0,.6.6A.6.6,0,0,0,6.152,9.126Zm9.588,0a.6.6,0,0,0-.065,0h-7.2a.6.6,0,0,0,.057,1.186h7.144A.6.6,0,1,0,15.74,9.126ZM8.53,12.7a.6.6,0,0,0,0,1.19h7.144a.6.6,0,1,0,0-1.19Zm-2.378,0a.6.6,0,1,0,.6.6A.6.6,0,0,0,6.152,12.7Zm0,3.571a.6.6,0,1,0,.6.6A.6.6,0,0,0,6.152,16.268Zm2.378,0a.6.6,0,1,0,0,1.19h5.953a.6.6,0,1,0,0-1.19ZM6.152,19.84a.6.6,0,1,0,.6.6A.6.6,0,0,0,6.152,19.84Zm2.321,0a.6.6,0,0,0,.057,1.192h4.763a.6.6,0,1,0,0-1.192H8.473Zm-7.091.585a.6.6,0,0,0-.589.607l0,2.975a1.8,1.8,0,0,0,1.786,1.786h11.9a.6.6,0,1,0,0-1.19H2.581a.581.581,0,0,1-.6-.6V21.031a.6.6,0,0,0-.6-.607Zm19.055-5.347a5.358,5.358,0,1,0,5.355,5.357A5.365,5.365,0,0,0,20.437,15.077Zm0,1.192a4.167,4.167,0,1,1-4.165,4.165A4.155,4.155,0,0,1,20.437,16.268Zm1.88,2.306a.6.6,0,0,0-.408.18l-2.1,2.1-.839-.843a.6.6,0,1,0-.844.843l1.261,1.261a.6.6,0,0,0,.843,0L22.753,19.6a.6.6,0,0,0-.436-1.023Z" transform="translate(593.207 124.206)" fill="#6768a6" fill-rule="evenodd"/>
  </g>
</svg>
