<svg xmlns="http://www.w3.org/2000/svg" xmlns:xlink="http://www.w3.org/1999/xlink" width="31.049" height="30" viewBox="0 0 31.049 30">
  <defs>
    <linearGradient id="linear-gradient" x1="0.655" y1="0.3" x2="0.162" y2="1.048" gradientUnits="objectBoundingBox">
      <stop offset="0.43" stop-color="#fffffb"/>
      <stop offset="0.52" stop-color="#f9faf8"/>
      <stop offset="0.63" stop-color="#e9ebf0"/>
      <stop offset="0.77" stop-color="#ced3e2"/>
      <stop offset="0.9" stop-color="#acb4d1"/>
    </linearGradient>
    <linearGradient id="linear-gradient-2" x1="0.104" y1="1.342" x2="1.004" y2="0.06" gradientUnits="objectBoundingBox">
      <stop offset="0" stop-color="#fffffb"/>
      <stop offset="1" stop-color="#acb4d1"/>
    </linearGradient>
    <linearGradient id="linear-gradient-3" x1="26.476" y1="-17.409" x2="27.475" y2="-17.409" gradientUnits="objectBoundingBox">
      <stop offset="0" stop-color="#fffffb"/>
      <stop offset="0.41" stop-color="#d7dbe7"/>
      <stop offset="0.79" stop-color="#b8bfd7"/>
      <stop offset="1" stop-color="#acb4d1"/>
    </linearGradient>
  </defs>
  <g id="Teleworker_logo_with_name_Dark_menu" data-name="Teleworker logo with name_Dark_menu" transform="translate(-0.16 0)">
    <path id="Path_4067" data-name="Path 4067" d="M47.217,105.692H39.06v-9.9" transform="translate(-30.739 -75.694)" fill="none"/>
    <path id="Path_4068" data-name="Path 4068" d="M105.054,77.51v3.42a10.326,10.326,0,0,1-7.364,9.883,10.336,10.336,0,0,1-4.08-2.341A10.28,10.28,0,0,0,96.9,80.93v-.29a3.147,3.147,0,0,1,3.147-3.13Z" transform="translate(-73.845 -61.249)" fill="url(#linear-gradient)"/>
    <path id="Path_4069" data-name="Path 4069" d="M82.321,132.1a10.4,10.4,0,0,1-2.987.436H77.147a10.4,10.4,0,0,1-2.987-.436,10.351,10.351,0,0,0,4.08-2.341A10.337,10.337,0,0,0,82.321,132.1Z" transform="translate(-58.476 -102.538)" fill="url(#linear-gradient-2)"/>
    <path id="Path_4070" data-name="Path 4070" d="M50.494,27.222a10.328,10.328,0,0,1-4.078,2.341A10.326,10.326,0,0,1,39.05,19.68V0h5.024a3.134,3.134,0,0,1,3.147,3.13v5H39.052v8.129h8.157v3.42a10.28,10.28,0,0,0,3.285,7.542Z" transform="translate(-30.731 0)" fill="#fffffb"/>
    <path id="Path_4071" data-name="Path 4071" d="M3.147,0H8.134V8.159H0V3.147A3.147,3.147,0,0,1,3.147,0Z" transform="translate(0.16 16.261) rotate(-90)" fill="#fffffb"/>
    <path id="Path_4072" data-name="Path 4072" d="M3.147,0H8.131V8.159H0V3.147A3.147,3.147,0,0,1,3.147,0Z" transform="translate(16.477 0) rotate(90)" fill="#fffffb"/>
    <rect id="Rectangle_915" data-name="Rectangle 915" width="0.002" height="8.131" transform="translate(16.477 8.131)" fill="rgba(36,65,133,0.5)"/>
    <rect id="Rectangle_916" data-name="Rectangle 916" width="8.131" height="8.157" transform="translate(8.331 8.119)" fill="url(#linear-gradient-3)"/>
  </g>
</svg>
