<svg xmlns="http://www.w3.org/2000/svg" xmlns:xlink="http://www.w3.org/1999/xlink" width="180" height="28.177" viewBox="0 0 180 28.177">
  <defs>
    <linearGradient id="logo-gradient" x1="0.655" y1="0.3" x2="0.162" y2="1.048" gradientUnits="objectBoundingBox">
      <stop offset="0.43" stop-color="#fffffb"/>
      <stop offset="0.52" stop-color="#f9faf8"/>
      <stop offset="0.63" stop-color="#e9ebf0"/>
      <stop offset="0.77" stop-color="#ced3e2"/>
      <stop offset="0.9" stop-color="#acb4d1"/>
    </linearGradient>
    <linearGradient id="logo-gradient-2" x1="0.104" y1="1.342" x2="1.004" y2="0.06" gradientUnits="objectBoundingBox">
      <stop offset="0" stop-color="#fffffb"/>
      <stop offset="1" stop-color="#acb4d1"/>
    </linearGradient>
    <linearGradient id="logo-gradient-3" x1="26.476" y1="-17.409" x2="27.475" y2="-17.409" gradientUnits="objectBoundingBox">
      <stop offset="0" stop-color="#fffffb"/>
      <stop offset="0.41" stop-color="#d7dbe7"/>
      <stop offset="0.79" stop-color="#b8bfd7"/>
      <stop offset="1" stop-color="#acb4d1"/>
    </linearGradient>
  </defs>
  <g id="Teleworker_logo_with_name_Dark" data-name="Teleworker logo with name_Dark" transform="translate(-0.16 0)">
    <path id="Path_4067" data-name="Path 4067" d="M46.721,105.09H39.06v-9.3" transform="translate(-31.235 -76.915)" fill="none"/>
    <path id="Path_4068" data-name="Path 4068" d="M104.359,77.51v3.212A9.7,9.7,0,0,1,97.442,90a9.708,9.708,0,0,1-3.832-2.2A9.655,9.655,0,0,0,96.7,80.722V80.45a2.956,2.956,0,0,1,2.956-2.94Z" transform="translate(-75.036 -62.237)" fill="url(#logo-gradient)"/>
    <path id="Path_4069" data-name="Path 4069" d="M81.825,131.959a9.771,9.771,0,0,1-2.806.41H76.966a9.771,9.771,0,0,1-2.806-.41,9.722,9.722,0,0,0,3.832-2.2A9.709,9.709,0,0,0,81.825,131.959Z" transform="translate(-59.419 -104.192)" fill="url(#logo-gradient-2)"/>
    <path id="Path_4070" data-name="Path 4070" d="M49.8,25.568a9.7,9.7,0,0,1-3.83,2.2,9.7,9.7,0,0,1-6.918-9.283V0h4.719a2.944,2.944,0,0,1,2.956,2.94v4.7H39.052v7.635h7.661v3.212A9.655,9.655,0,0,0,49.8,25.568Z" transform="translate(-31.227 0)" fill="#fffffb"/>
    <path id="Path_4071" data-name="Path 4071" d="M2.956,0H7.639V7.663H0V2.956A2.956,2.956,0,0,1,2.956,0Z" transform="translate(0.16 15.273) rotate(-90)" fill="#fffffb"/>
    <path id="Path_4072" data-name="Path 4072" d="M2.956,0H7.637V7.663H0V2.956A2.956,2.956,0,0,1,2.956,0Z" transform="translate(15.486 0) rotate(90)" fill="#fffffb"/>
    <rect id="Rectangle_915" data-name="Rectangle 915" width="0.002" height="7.637" transform="translate(15.486 7.637)" fill="rgba(36,65,133,0.5)"/>
    <rect id="Rectangle_916" data-name="Rectangle 916" width="7.637" height="7.661" transform="translate(7.835 7.625)" fill="url(#logo-gradient-3)"/>
    <path id="Path_4073" data-name="Path 4073" d="M210.3,54.569V45.308H206.63V42.63h10.693v2.678h-3.649v9.261Z" transform="translate(-165.787 -34.23)" fill="#fffffb"/>
    <path id="Path_4074" data-name="Path 4074" d="M264.257,65a6.232,6.232,0,0,1-2.873-.623,4.672,4.672,0,0,1-1.894-1.706,4.532,4.532,0,0,1-.674-2.447,4.7,4.7,0,0,1,.656-2.481,4.631,4.631,0,0,1,1.809-1.7,5.466,5.466,0,0,1,2.619-.615,5.377,5.377,0,0,1,2.481.571,4.532,4.532,0,0,1,1.791,1.637,4.774,4.774,0,0,1,.674,2.6,3.19,3.19,0,0,1-.018.394c-.018.15-.024.284-.033.41h-7.316V59.342h5.594l-1.23.479a2.148,2.148,0,0,0-.231-1.084,1.789,1.789,0,0,0-.674-.725,1.923,1.923,0,0,0-1-.256,2.057,2.057,0,0,0-1.04.256,1.667,1.667,0,0,0-.674.725,2.468,2.468,0,0,0-.231,1.1v.495a2.364,2.364,0,0,0,.282,1.182,1.876,1.876,0,0,0,.81.759,2.806,2.806,0,0,0,1.263.264,3.084,3.084,0,0,0,1.182-.2,3.548,3.548,0,0,0,.956-.6l1.687,1.791a4.252,4.252,0,0,1-1.62,1.1A6.2,6.2,0,0,1,264.257,65Z" transform="translate(-207.69 -44.512)" fill="#fffffb"/>
    <path id="Path_4075" data-name="Path 4075" d="M317.33,51.654V39h3.241V51.654Z" transform="translate(-254.674 -31.315)" fill="#fffffb"/>
    <path id="Path_4076" data-name="Path 4076" d="M346.917,65a6.227,6.227,0,0,1-2.873-.623,4.672,4.672,0,0,1-1.894-1.706,4.532,4.532,0,0,1-.674-2.447,4.7,4.7,0,0,1,.656-2.481,4.6,4.6,0,0,1,1.811-1.7,5.464,5.464,0,0,1,2.617-.615,5.366,5.366,0,0,1,2.481.571,4.532,4.532,0,0,1,1.8,1.637,4.774,4.774,0,0,1,.674,2.6,3.211,3.211,0,0,1-.018.394c-.018.15-.022.284-.034.41h-7.322V59.342h5.594l-1.228.479a2.167,2.167,0,0,0-.231-1.084,1.816,1.816,0,0,0-.674-.725,1.927,1.927,0,0,0-1.007-.256,2.049,2.049,0,0,0-1.038.256,1.667,1.667,0,0,0-.674.725,2.47,2.47,0,0,0-.231,1.1v.495a2.333,2.333,0,0,0,.282,1.182,1.876,1.876,0,0,0,.81.759,2.8,2.8,0,0,0,1.261.264,3.07,3.07,0,0,0,1.182-.2,3.494,3.494,0,0,0,.956-.6l1.689,1.791a4.252,4.252,0,0,1-1.62,1.1A6.2,6.2,0,0,1,346.917,65Z" transform="translate(-274.062 -44.513)" fill="#fffffb"/>
    <path id="Path_4077" data-name="Path 4077" d="M396.927,65.481,393.67,56.22h3.054l2.609,7.76h-1.484l2.745-7.76h2.747l2.627,7.76h-1.45l2.694-7.76h2.849l-3.293,9.261H403.63l-2.2-6.4h.938l-2.284,6.4Z" transform="translate(-315.972 -45.142)" fill="#fffffb"/>
    <path id="Path_4078" data-name="Path 4078" d="M482.843,65.009a5.732,5.732,0,0,1-2.694-.615,4.671,4.671,0,0,1-1.852-1.7,4.912,4.912,0,0,1-.008-4.946,4.7,4.7,0,0,1,1.852-1.7,6.231,6.231,0,0,1,5.4,0,4.676,4.676,0,0,1,1.858,1.7,4.67,4.67,0,0,1-1.858,6.642A5.783,5.783,0,0,1,482.843,65.009Zm0-2.575a1.89,1.89,0,0,0,.985-.256,1.856,1.856,0,0,0,.7-.759,2.561,2.561,0,0,0,.264-1.2,2.449,2.449,0,0,0-.264-1.194,1.905,1.905,0,0,0-3.36,0,2.427,2.427,0,0,0-.266,1.194,2.537,2.537,0,0,0,.266,1.2,1.84,1.84,0,0,0,.7.759,1.893,1.893,0,0,0,.977.256Z" transform="translate(-383.384 -44.516)" fill="#fffffb"/>
    <path id="Path_4079" data-name="Path 4079" d="M538.21,64.822V55.561h3.111v2.715l-.477-.768a3.119,3.119,0,0,1,1.338-1.576,4.376,4.376,0,0,1,2.227-.53v2.94c-.148-.022-.28-.037-.394-.043s-.229,0-.341,0a2.347,2.347,0,0,0-1.6.538,2.209,2.209,0,0,0-.613,1.748V64.83Z" transform="translate(-432.031 -44.483)" fill="#fffffb"/>
    <path id="Path_4080" data-name="Path 4080" d="M576.38,51.654V39h3.239V51.654Zm2.711-1.7.069-3.89,3.769-3.667h3.836l-4.177,4.335-1.639,1.336Zm4.077,1.7-2.814-3.547,1.97-2.491,4.757,6.037Z" transform="translate(-462.68 -31.315)" fill="#fffffb"/>
    <path id="Path_4081" data-name="Path 4081" d="M636.175,65a6.238,6.238,0,0,1-2.873-.623,4.672,4.672,0,0,1-1.894-1.706,4.533,4.533,0,0,1-.672-2.447,4.7,4.7,0,0,1,.656-2.481,4.613,4.613,0,0,1,1.807-1.7,5.471,5.471,0,0,1,2.619-.615,5.378,5.378,0,0,1,2.481.571,4.533,4.533,0,0,1,1.791,1.637,4.774,4.774,0,0,1,.674,2.6,3.223,3.223,0,0,1-.018.394c-.018.15-.022.284-.034.41H633.4V59.342h5.594l-1.23.479a2.168,2.168,0,0,0-.229-1.084,1.815,1.815,0,0,0-.674-.725,1.937,1.937,0,0,0-1.007-.256,2.057,2.057,0,0,0-1.04.256,1.667,1.667,0,0,0-.674.725,2.469,2.469,0,0,0-.231,1.1v.495a2.367,2.367,0,0,0,.282,1.182,1.877,1.877,0,0,0,.81.759,2.812,2.812,0,0,0,1.263.264,3.084,3.084,0,0,0,1.182-.2,3.522,3.522,0,0,0,.956-.6l1.689,1.791a4.275,4.275,0,0,1-1.622,1.1A6.2,6.2,0,0,1,636.175,65Z" transform="translate(-506.326 -44.513)" fill="#fffffb"/>
    <path id="Path_4082" data-name="Path 4082" d="M689.24,64.822V55.561h3.105v2.715l-.479-.768a3.113,3.113,0,0,1,1.34-1.576,4.365,4.365,0,0,1,2.225-.53v2.94c-.148-.022-.278-.037-.394-.043s-.226,0-.341,0a2.347,2.347,0,0,0-1.6.538,2.216,2.216,0,0,0-.613,1.748V64.83Z" transform="translate(-553.302 -44.483)" fill="#fffffb"/>
    <path id="Path_4083" data-name="Path 4083" d="M753.64,54.569V42.63h3.375V54.569Z" transform="translate(-605.013 -34.23)" fill="#fffffb"/>
    <path id="Path_4084" data-name="Path 4084" d="M788.13,55.438a4.217,4.217,0,0,1,1.945.443,3.243,3.243,0,0,1,1.379,1.348,4.785,4.785,0,0,1,.5,2.337v5.287h-3.263V60.094a2.171,2.171,0,0,0-.394-1.44,1.379,1.379,0,0,0-1.084-.451,2,2,0,0,0-.956.229,1.576,1.576,0,0,0-.664.709,2.824,2.824,0,0,0-.239,1.261v4.451H782.11V55.592h3.1v2.644l-.613-.768a3.7,3.7,0,0,1,1.448-1.509A4.162,4.162,0,0,1,788.13,55.438Z" transform="translate(-627.873 -44.514)" fill="#fffffb"/>
    <path id="Path_4085" data-name="Path 4085" d="M845.315,65a5.911,5.911,0,0,1-2.745-.615,4.7,4.7,0,0,1-1.878-1.7,4.646,4.646,0,0,1,1.878-6.634,5.86,5.86,0,0,1,2.745-.623,5.237,5.237,0,0,1,2.711.674,3.72,3.72,0,0,1,1.62,1.868l-2.506,1.3a2.267,2.267,0,0,0-.8-.948,1.937,1.937,0,0,0-1.04-.3,2.017,2.017,0,0,0-1.015.256,1.917,1.917,0,0,0-.727.733,2.792,2.792,0,0,0,0,2.4,1.876,1.876,0,0,0,.725.751,2.017,2.017,0,0,0,1.015.256,1.919,1.919,0,0,0,1.04-.3,2.256,2.256,0,0,0,.8-.948l2.506,1.279a3.72,3.72,0,0,1-1.62,1.868A5.237,5.237,0,0,1,845.315,65Z" transform="translate(-674.364 -44.509)" fill="#fffffb"/>
    <path id="Path_4086" data-name="Path 4086" d="M895.875,88.342A1.921,1.921,0,0,1,894.5,87.8a1.855,1.855,0,0,1-.563-1.407,1.773,1.773,0,0,1,.563-1.379,2.1,2.1,0,0,1,2.759,0,1.774,1.774,0,0,1,.564,1.379,1.848,1.848,0,0,1-.564,1.407A1.921,1.921,0,0,1,895.875,88.342Z" transform="translate(-717.66 -67.85)" fill="#fffffb"/>
  </g>
</svg>
