<svg xmlns="http://www.w3.org/2000/svg" width="150" height="23.477" viewBox="0 0 150 23.477">
  <g id="Teleworker_Inc" data-name="Teleworker Inc" transform="translate(0 0)">
    <path id="Path_3920" data-name="Path 3920" d="M45.283,103.539H38.9V95.79" transform="translate(-32.514 -80.064)" fill="none"/>
    <path id="Path_3921" data-name="Path 3921" d="M102.406,77.51v2.676a8.081,8.081,0,0,1-5.762,7.734,8.089,8.089,0,0,1-3.193-1.832,8.045,8.045,0,0,0,2.571-5.9v-.227a2.463,2.463,0,0,1,2.463-2.449Z" transform="translate(-78.108 -64.785)" fill="#a4b1ef"/>
    <path id="Path_3922" data-name="Path 3922" d="M80.386,131.592a8.142,8.142,0,0,1-2.338.341H76.338A8.142,8.142,0,0,1,74,131.592a8.1,8.1,0,0,0,3.193-1.832A8.089,8.089,0,0,0,80.386,131.592Z" transform="translate(-61.851 -108.457)" fill="rgba(57,62,147,0.92)"/>
    <path id="Path_3923" data-name="Path 3923" d="M47.846,21.3a8.082,8.082,0,0,1-3.192,1.832A8.081,8.081,0,0,1,38.89,15.4V0h3.927A2.453,2.453,0,0,1,45.28,2.449V6.363H38.892v6.362h6.383V15.4A8.044,8.044,0,0,0,47.846,21.3Z" transform="translate(-32.505)" fill="#6768a6"/>
    <path id="Path_3924" data-name="Path 3924" d="M2.463,0h3.9V6.385H0V2.463A2.463,2.463,0,0,1,2.463,0Z" transform="translate(0 12.725) rotate(-90)" fill="#8ff4d2"/>
    <path id="Path_3925" data-name="Path 3925" d="M2.463,0H6.355V6.385H0V2.463A2.463,2.463,0,0,1,2.463,0Z" transform="translate(12.769 0.008) rotate(90)" fill="#fb8888"/>
    <rect id="Rectangle_885" data-name="Rectangle 885" width="6.383" height="6.363" transform="translate(6.386 6.363)" fill="rgba(31,55,104,0.8)"/>
    <rect id="Rectangle_886" data-name="Rectangle 886" width="0.002" height="6.363" transform="translate(12.769 6.363)" fill="rgba(36,65,133,0.5)"/>
    <path id="Path_3926" data-name="Path 3926" d="M209.685,52.577V44.861H206.63V42.63h8.91v2.231H212.5v7.716Z" transform="translate(-172.707 -35.631)" fill="#6768a6"/>
    <path id="Path_3927" data-name="Path 3927" d="M263.35,63.408a5.193,5.193,0,0,1-2.394-.519,3.892,3.892,0,0,1-1.578-1.422,3.776,3.776,0,0,1-.561-2.039,3.916,3.916,0,0,1,.547-2.067,3.858,3.858,0,0,1,1.507-1.414,4.554,4.554,0,0,1,2.182-.512,4.48,4.48,0,0,1,2.067.476,3.776,3.776,0,0,1,1.492,1.364,3.978,3.978,0,0,1,.561,2.167,2.672,2.672,0,0,1-.015.328c-.015.125-.02.236-.028.341h-6.1V58.69H265.7l-1.024.4a1.79,1.79,0,0,0-.192-.9,1.491,1.491,0,0,0-.561-.6,1.6,1.6,0,0,0-.837-.213,1.714,1.714,0,0,0-.867.213,1.389,1.389,0,0,0-.561.6,2.057,2.057,0,0,0-.192.916v.412a1.97,1.97,0,0,0,.235.985,1.563,1.563,0,0,0,.675.632,2.338,2.338,0,0,0,1.052.22,2.569,2.569,0,0,0,.985-.164,2.954,2.954,0,0,0,.8-.5l1.405,1.492a3.543,3.543,0,0,1-1.35.916A5.163,5.163,0,0,1,263.35,63.408Z" transform="translate(-216.325 -46.335)" fill="#6768a6"/>
    <path id="Path_3928" data-name="Path 3928" d="M317.33,49.543V39h2.7V49.543Z" transform="translate(-265.233 -32.597)" fill="#6768a6"/>
    <path id="Path_3929" data-name="Path 3929" d="M346.01,63.409a5.188,5.188,0,0,1-2.394-.519,3.893,3.893,0,0,1-1.578-1.422,3.776,3.776,0,0,1-.561-2.039,3.915,3.915,0,0,1,.547-2.067,3.837,3.837,0,0,1,1.509-1.414,4.552,4.552,0,0,1,2.18-.512,4.471,4.471,0,0,1,2.067.476,3.776,3.776,0,0,1,1.5,1.364,3.978,3.978,0,0,1,.561,2.167,2.672,2.672,0,0,1-.015.328c-.015.125-.018.236-.028.341h-6.1V58.69h4.661l-1.023.4a1.806,1.806,0,0,0-.192-.9,1.514,1.514,0,0,0-.561-.6,1.606,1.606,0,0,0-.839-.213,1.707,1.707,0,0,0-.865.213,1.389,1.389,0,0,0-.561.6,2.057,2.057,0,0,0-.192.916v.412a1.944,1.944,0,0,0,.235.985,1.563,1.563,0,0,0,.675.632,2.33,2.33,0,0,0,1.051.22,2.558,2.558,0,0,0,.985-.164,2.911,2.911,0,0,0,.8-.5l1.407,1.492a3.543,3.543,0,0,1-1.349.916,5.17,5.17,0,0,1-1.913.317Z" transform="translate(-285.415 -46.335)" fill="#6768a6"/>
    <path id="Path_3930" data-name="Path 3930" d="M396.384,63.936,393.67,56.22h2.545l2.174,6.465h-1.236l2.287-6.465h2.289l2.188,6.465h-1.208l2.244-6.465h2.374l-2.743,7.716h-2.614l-1.834-5.329h.781l-1.9,5.329Z" transform="translate(-329.04 -46.99)" fill="#6768a6"/>
    <path id="Path_3931" data-name="Path 3931" d="M481.973,63.413a4.776,4.776,0,0,1-2.244-.512,3.891,3.891,0,0,1-1.543-1.414,4.092,4.092,0,0,1-.007-4.121,3.914,3.914,0,0,1,1.543-1.414,5.191,5.191,0,0,1,4.5,0,3.9,3.9,0,0,1,1.548,1.414,3.891,3.891,0,0,1-1.548,5.534A4.818,4.818,0,0,1,481.973,63.413Zm0-2.146a1.574,1.574,0,0,0,.821-.213,1.546,1.546,0,0,0,.583-.632,2.134,2.134,0,0,0,.22-1,2.041,2.041,0,0,0-.22-.995,1.588,1.588,0,0,0-2.8,0,2.023,2.023,0,0,0-.222.995,2.113,2.113,0,0,0,.222,1,1.534,1.534,0,0,0,.581.632,1.578,1.578,0,0,0,.814.213Z" transform="translate(-399.212 -46.339)" fill="#6768a6"/>
    <path id="Path_3932" data-name="Path 3932" d="M538.21,63.25V55.534H540.8V57.8l-.4-.64a2.6,2.6,0,0,1,1.115-1.313,3.646,3.646,0,0,1,1.855-.442v2.449c-.123-.018-.233-.031-.328-.036s-.19,0-.284,0a1.955,1.955,0,0,0-1.336.448,1.841,1.841,0,0,0-.511,1.456v3.538Z" transform="translate(-449.85 -46.304)" fill="#6768a6"/>
    <path id="Path_3933" data-name="Path 3933" d="M576.38,49.543V39h2.7V49.543Zm2.259-1.42.057-3.241,3.141-3.055h3.2l-3.48,3.612-1.366,1.113Zm3.4,1.42-2.344-2.955,1.642-2.075,3.963,5.03Z" transform="translate(-481.754 -32.597)" fill="#6768a6"/>
    <path id="Path_3934" data-name="Path 3934" d="M635.268,63.409a5.2,5.2,0,0,1-2.394-.519,3.893,3.893,0,0,1-1.578-1.422,3.776,3.776,0,0,1-.56-2.039,3.916,3.916,0,0,1,.547-2.067,3.843,3.843,0,0,1,1.505-1.414,4.559,4.559,0,0,1,2.182-.512,4.48,4.48,0,0,1,2.067.476,3.776,3.776,0,0,1,1.492,1.364,3.978,3.978,0,0,1,.561,2.167,2.661,2.661,0,0,1-.015.328c-.015.125-.018.236-.028.341h-6.1V58.69h4.661l-1.024.4a1.807,1.807,0,0,0-.19-.9,1.514,1.514,0,0,0-.562-.6,1.614,1.614,0,0,0-.839-.213,1.714,1.714,0,0,0-.867.213,1.389,1.389,0,0,0-.561.6,2.058,2.058,0,0,0-.192.916v.412a1.97,1.97,0,0,0,.235.985,1.563,1.563,0,0,0,.675.632,2.343,2.343,0,0,0,1.052.22,2.569,2.569,0,0,0,.985-.164,2.935,2.935,0,0,0,.8-.5l1.407,1.492a3.563,3.563,0,0,1-1.351.916A5.163,5.163,0,0,1,635.268,63.409Z" transform="translate(-527.186 -46.335)" fill="#6768a6"/>
    <path id="Path_3935" data-name="Path 3935" d="M689.24,63.25V55.534h2.587V57.8l-.4-.64a2.594,2.594,0,0,1,1.116-1.313A3.636,3.636,0,0,1,694.4,55.4V57.85c-.123-.018-.232-.031-.328-.036s-.189,0-.284,0a1.955,1.955,0,0,0-1.336.448,1.847,1.847,0,0,0-.511,1.456v3.538Z" transform="translate(-576.085 -46.304)" fill="#6768a6"/>
    <path id="Path_3936" data-name="Path 3936" d="M753.64,52.577V42.63h2.812v9.947Z" transform="translate(-629.913 -35.631)" fill="#6768a6"/>
    <path id="Path_3937" data-name="Path 3937" d="M787.125,55.438a3.513,3.513,0,0,1,1.62.369A2.7,2.7,0,0,1,789.9,56.93a3.987,3.987,0,0,1,.419,1.947v4.4h-2.719V59.317a1.81,1.81,0,0,0-.328-1.2,1.149,1.149,0,0,0-.9-.376,1.663,1.663,0,0,0-.8.19,1.314,1.314,0,0,0-.553.591,2.354,2.354,0,0,0-.2,1.051v3.709H782.11V55.566H784.7v2.2l-.511-.64a3.086,3.086,0,0,1,1.207-1.258A3.467,3.467,0,0,1,787.125,55.438Z" transform="translate(-653.708 -46.336)" fill="#6768a6"/>
    <path id="Path_3938" data-name="Path 3938" d="M844.43,63.4a4.925,4.925,0,0,1-2.287-.512,3.917,3.917,0,0,1-1.565-1.414,3.871,3.871,0,0,1,1.565-5.528,4.882,4.882,0,0,1,2.287-.519,4.363,4.363,0,0,1,2.259.561,3.1,3.1,0,0,1,1.35,1.556l-2.088,1.08a1.889,1.889,0,0,0-.668-.79,1.614,1.614,0,0,0-.867-.248,1.681,1.681,0,0,0-.845.213,1.6,1.6,0,0,0-.606.611,2.327,2.327,0,0,0,0,2,1.563,1.563,0,0,0,.6.625,1.681,1.681,0,0,0,.846.213,1.6,1.6,0,0,0,.867-.248,1.88,1.88,0,0,0,.668-.79l2.088,1.065a3.1,3.1,0,0,1-1.349,1.556,4.364,4.364,0,0,1-2.257.561Z" transform="translate(-702.103 -46.331)" fill="#6768a6"/>
    <path id="Path_3939" data-name="Path 3939" d="M895.551,87.7a1.6,1.6,0,0,1-1.149-.448,1.545,1.545,0,0,1-.47-1.172,1.477,1.477,0,0,1,.47-1.149,1.745,1.745,0,0,1,2.3,0,1.478,1.478,0,0,1,.47,1.149,1.54,1.54,0,0,1-.47,1.172A1.6,1.6,0,0,1,895.551,87.7Z" transform="translate(-747.171 -70.627)" fill="#6768a6"/>
  </g>
</svg>
