<svg xmlns="http://www.w3.org/2000/svg" xmlns:xlink="http://www.w3.org/1999/xlink" viewBox="9 6 27 27" width="20" height="20">
  <g id="icon-minus" transform="translate(9 6)">
    <g id="Group_1136" data-name="Group 1136">
      <g transform="matrix(1, 0, 0, 1, -9, -6)" filter="url(#Path_2)">
        <path id="Path_2-2" data-name="Path 2" d="M12.5,0A12.5,12.5,0,1,1,0,12.5,12.5,12.5,0,0,1,12.5,0Z"
              transform="translate(9 6)" fill="#fffffb"/>
      </g>
      <path id="icon-minus-2" data-name="icon-minus"
            d="M12.5,0A12.5,12.5,0,1,0,25,12.5,12.514,12.514,0,0,0,12.5,0Zm5.469,13.542H7.031a1.042,1.042,0,0,1,0-2.083H17.969a1.042,1.042,0,0,1,0,2.083Zm0,0"
            fill="#6768A6"/>
    </g>
  </g>
</svg>
