<svg xmlns="http://www.w3.org/2000/svg" xmlns:xlink="http://www.w3.org/1999/xlink" width="25" height="25" viewBox="0 0 25 25">
  <defs>
    <clipPath id="nav-tutorial">
      <rect id="Rectangle_955" data-name="Rectangle 955" width="25" height="25" transform="translate(300 224)" fill="#6768a6"/>
    </clipPath>
  </defs>
  <g id="teaching" transform="translate(-300 -224)" clip-path="url(#nav-tutorial)">
    <g id="teaching-2" data-name="teaching" transform="translate(300.027 222.685)">
      <path id="Path_4109" data-name="Path 4109" d="M7.652,13.476A2.554,2.554,0,1,0,5.1,10.922,2.556,2.556,0,0,0,7.652,13.476Zm0-4.329a1.774,1.774,0,1,1-1.774,1.775A1.776,1.776,0,0,1,7.652,9.147Zm10.153,2.475h3.141a.39.39,0,1,0,0-.78H17.806a.39.39,0,0,0,0,.78Z" transform="translate(-1.128 -0.892)" fill="#6768a6"/>
      <path id="Path_4110" data-name="Path 4110" d="M24.582,20.041h-.5V4.7a.39.39,0,0,0-.39-.39H1.251a.39.39,0,0,0-.39.39V20.041h-.5a.39.39,0,0,0-.39.39v1.721a.39.39,0,0,0,.39.39h24.22a.39.39,0,0,0,.39-.39V20.431A.39.39,0,0,0,24.582,20.041ZM1.641,5.095H23.307V20.041H9.852V16.589l2.269.764a.39.39,0,0,0,.385-.079l2.777-2.486.876-.154a.388.388,0,0,0,.321-.416L16.3,12.161a.389.389,0,0,0-.388-.357H15.7l.329-1.373a.39.39,0,1,0-.759-.182l-.314,1.306-.094-.064a.391.391,0,0,0-.6.232l-.239.991-2.161,1.742L9.474,12.771a.386.386,0,0,0-.225-.071H4.335a1.033,1.033,0,0,0-.8.33,1.438,1.438,0,0,0-.3,1.008v6H1.641ZM.753,20.821H3.236v.941H.753Zm3.263.941V20.43l0-6.432a.706.706,0,0,1,.106-.445c.018-.019.066-.073.239-.073H9.126l2.527,1.784a.39.39,0,0,0,.47-.016l2.494-2.01a.4.4,0,0,0,.135-.212l.138-.573.094.064c.006,0,.014,0,.019.006a.386.386,0,0,0,.109.05.4.4,0,0,0,.09.011h.356l.114,1.344-.634.112a.392.392,0,0,0-.193.094l-2.689,2.409-2.568-.864a.389.389,0,0,0-.514.369v5.716H4.016Zm20.177,0H9.852v-.941H24.193v.941Z" transform="translate(0)" fill="#6768a6"/>
    </g>
  </g>
</svg>
