<svg xmlns="http://www.w3.org/2000/svg" width="211.244" height="80" viewBox="0 0 211.244 80">
  <g id="Auto_Taggin" data-name="Auto Taggin" transform="translate(-0.004)">
    <g id="Group_3526" data-name="Group 3526" transform="translate(5.43)">
      <g id="Group_3525" data-name="Group 3525">
        <g id="Group_3524" data-name="Group 3524" transform="translate(21.763 0.8)">
          <path id="Path_4015" data-name="Path 4015" d="M15.874,15.682a6.768,6.768,0,0,1-3.145-.69A4.869,4.869,0,0,1,10.6,12.9,7.367,7.367,0,0,1,9.86,9.365V2.606A1.2,1.2,0,0,1,11.046,1.42h2.9V8.73a3.781,3.781,0,0,0,.745,2.593,2.662,2.662,0,0,0,2.1.828,3.381,3.381,0,0,0,1.683-.414A2.814,2.814,0,0,0,19.626,10.5a4.633,4.633,0,0,0,.441-2.1V1.42h2.869a1.2,1.2,0,0,1,1.186,1.186V15.489H20.26V11.6l.717,1.159a5.074,5.074,0,0,1-2.1,2.207A6.616,6.616,0,0,1,15.874,15.682Z" transform="translate(-9.86 1.697)" fill="#6768a6"/>
          <path id="Path_4016" data-name="Path 4016" d="M16.17,6.856V4.9a1.2,1.2,0,0,1,1.186-1.186h8.579V6.856Zm7.421,10.814A5.435,5.435,0,0,1,19.729,16.4a4.918,4.918,0,0,1-1.379-3.779V.29h2.924A1.2,1.2,0,0,1,22.46,1.476v11.09a1.986,1.986,0,0,0,.469,1.379,1.6,1.6,0,0,0,1.241.5,2.662,2.662,0,0,0,1.683-.524l1.076,2.869a3.89,3.89,0,0,1-1.49.662A7.2,7.2,0,0,1,23.591,17.669Z" transform="translate(1.237 -0.29)" fill="#6768a6"/>
          <path id="Path_4017" data-name="Path 4017" d="M28.419,15.823a7.947,7.947,0,0,1-3.945-.938,7.2,7.2,0,0,1-2.731-2.566A6.96,6.96,0,0,1,20.75,8.6a7.126,7.126,0,0,1,.993-3.752,7.2,7.2,0,0,1,2.731-2.566,8.413,8.413,0,0,1,3.945-.938,8.237,8.237,0,0,1,4,.938A6.8,6.8,0,0,1,35.15,4.843,7.058,7.058,0,0,1,36.143,8.6a6.96,6.96,0,0,1-.993,3.724,7.2,7.2,0,0,1-2.731,2.566A8.313,8.313,0,0,1,28.419,15.823Zm0-3.338a3.417,3.417,0,0,0,1.848-.469,3.175,3.175,0,0,0,1.269-1.352,4.283,4.283,0,0,0,.5-2.1,4.137,4.137,0,0,0-.5-2.1,3.441,3.441,0,0,0-1.3-1.3,3.529,3.529,0,0,0-1.793-.441,3.649,3.649,0,0,0-1.821.469A3.152,3.152,0,0,0,25.3,6.5a4.137,4.137,0,0,0-.5,2.1,4.283,4.283,0,0,0,.5,2.1,3.4,3.4,0,0,0,1.3,1.352A3.705,3.705,0,0,0,28.419,12.485Z" transform="translate(9.291 1.557)" fill="#6768a6"/>
        </g>
        <path id="Path_4018" data-name="Path 4018" d="M18.327,14.566h-8.11a1.141,1.141,0,0,0-1.076.717l-.331.772a1.165,1.165,0,0,0,1.1,1.6H19.4ZM16.81,7.972,13.224,0H9.2L2.079,16.028a1.152,1.152,0,0,0,1.076,1.628H5.527L11.182,4.028l4.386,10.538,1.241,2.979.055.11h2.483A1.183,1.183,0,0,0,20.424,16Z" transform="translate(-1.971)" fill="#6768a6"/>
      </g>
    </g>
    <g id="Group_3530" data-name="Group 3530" transform="translate(0.004 30.234)">
      <g id="Group_3527" data-name="Group 3527" transform="translate(156.933 6.821)">
        <path id="Path_4019" data-name="Path 4019" d="M69.272,14.281a1.573,1.573,0,0,0-2.483-.414l-5.9,4.855h0l-3.972,23.31a1.127,1.127,0,0,0,.717,1.379L68.141,45.2c.524.083,1.021-.386,1.131-1.076l3.945-23.283Z" transform="translate(-56.892 -13.432)" fill="#6768a6"/>
        <circle id="Ellipse_183" data-name="Ellipse 183" cx="1.766" cy="1.766" r="1.766" transform="translate(8.214 5.566)" fill="#fff"/>
      </g>
      <g id="Group_3529" data-name="Group 3529">
        <g id="Group_3528" data-name="Group 3528">
          <path id="Path_4020" data-name="Path 4020" d="M4.28,13.49V45.049H13.3V13.49" transform="translate(7.516 -6.511)" fill="#464653"/>
          <path id="Path_4021" data-name="Path 4021" d="M24.295,44.7a13.544,13.544,0,0,1-5.931-1.186A9.379,9.379,0,0,1,14.5,40.257,8.129,8.129,0,0,1,13.15,35.65a8.492,8.492,0,0,1,1.3-4.634,8.479,8.479,0,0,1,4.138-3.145,20.593,20.593,0,0,1,7.448-1.1h7.89v4.993H26.916c-2.041,0-3.448.331-4.193.993a3.127,3.127,0,0,0-1.131,2.51,3.192,3.192,0,0,0,1.3,2.648,5.89,5.89,0,0,0,3.531.966,7.863,7.863,0,0,0,3.972-.993,5.54,5.54,0,0,0,2.483-3.062L34.2,38.878a7.84,7.84,0,0,1-3.448,4.3A12.289,12.289,0,0,1,24.295,44.7Zm9.1-.441V38.437l-.552-1.269V26.712a5.592,5.592,0,0,0-1.683-4.331,7.429,7.429,0,0,0-5.186-1.572,15.153,15.153,0,0,0-4.69.745A12.848,12.848,0,0,0,17.316,23.6l-1.9-3.752a2.736,2.736,0,0,1,1.186-3.7,21.281,21.281,0,0,1,3.531-1.3,27.285,27.285,0,0,1,7.007-.91c4.552,0,8.083,1.076,10.621,3.228,2.51,2.152,3.779,5.49,3.779,10.069v14.29a2.767,2.767,0,0,1-2.759,2.759H33.4Z" transform="translate(23.115 -5.719)" fill="#464653"/>
          <path id="Path_4022" data-name="Path 4022" d="M41.211,42.823A15.5,15.5,0,0,1,33.763,41a13.932,13.932,0,0,1-5.379-5.048,14.219,14.219,0,0,1-2.014-7.586,14.169,14.169,0,0,1,2.014-7.641,13.663,13.663,0,0,1,5.379-5.021,15.782,15.782,0,0,1,7.448-1.766,14.127,14.127,0,0,1,6.759,1.517A10.528,10.528,0,0,1,52.439,20.2a18.247,18.247,0,0,1,1.6,8.166,18.419,18.419,0,0,1-1.6,8.138A10.668,10.668,0,0,1,47.97,41.25,13.825,13.825,0,0,1,41.211,42.823Zm1.379,12.662a31.786,31.786,0,0,1-8.138-1.021,21.378,21.378,0,0,1-4.193-1.572,2.793,2.793,0,0,1-1.1-3.779l2.207-4a14.679,14.679,0,0,0,4.8,2.538,18.964,18.964,0,0,0,5.793.91c3.034,0,5.269-.69,6.676-2.041,1.407-1.379,2.124-3.421,2.124-6.124V35.954l.552-7.559-.166-7.614v-6.4H56.6a2.767,2.767,0,0,1,2.759,2.759V39.264q0,8.276-4.331,12.248C52.163,54.161,48,55.485,42.591,55.485Zm.386-19.724a8.457,8.457,0,0,0,4.055-.938A6.9,6.9,0,0,0,49.818,32.2a7.354,7.354,0,0,0,.993-3.834,7.316,7.316,0,0,0-.993-3.862,6.71,6.71,0,0,0-2.786-2.538,9.692,9.692,0,0,0-8.083,0,6.676,6.676,0,0,0-2.841,2.538,7.019,7.019,0,0,0-1.021,3.862A7.119,7.119,0,0,0,36.108,32.2a7.244,7.244,0,0,0,2.841,2.621A8.578,8.578,0,0,0,42.977,35.761Z" transform="translate(46.364 -5.719)" fill="#464653"/>
          <path id="Path_4023" data-name="Path 4023" d="M56.111,42.823A15.5,15.5,0,0,1,48.663,41a13.932,13.932,0,0,1-5.379-5.048,14.219,14.219,0,0,1-2.014-7.586,14.169,14.169,0,0,1,2.014-7.641,13.663,13.663,0,0,1,5.379-5.021,15.782,15.782,0,0,1,7.448-1.766,14.127,14.127,0,0,1,6.759,1.517A10.527,10.527,0,0,1,67.339,20.2a18.247,18.247,0,0,1,1.6,8.166,18.419,18.419,0,0,1-1.6,8.138A10.668,10.668,0,0,1,62.87,41.25,13.825,13.825,0,0,1,56.111,42.823Zm1.379,12.662a31.785,31.785,0,0,1-8.138-1.021,21.378,21.378,0,0,1-4.193-1.572,2.794,2.794,0,0,1-1.1-3.779l2.207-4a14.679,14.679,0,0,0,4.8,2.538,18.964,18.964,0,0,0,5.793.91c3.034,0,5.269-.69,6.676-2.041,1.407-1.379,2.124-3.421,2.124-6.124V35.954l.552-7.559-.166-7.614v-6.4H71.5a2.767,2.767,0,0,1,2.759,2.759V39.264q0,8.276-4.331,12.248C67.063,54.161,62.9,55.485,57.491,55.485ZM57.9,35.761a8.457,8.457,0,0,0,4.055-.938A6.9,6.9,0,0,0,64.746,32.2a7.354,7.354,0,0,0,.993-3.834,7.316,7.316,0,0,0-.993-3.862,6.71,6.71,0,0,0-2.786-2.538,8.768,8.768,0,0,0-4.055-.883,9.179,9.179,0,0,0-4.028.883,6.676,6.676,0,0,0-2.841,2.538,7.019,7.019,0,0,0-1.021,3.862A7.119,7.119,0,0,0,51.036,32.2a7.244,7.244,0,0,0,2.841,2.621A8.423,8.423,0,0,0,57.9,35.761Z" transform="translate(72.567 -5.719)" fill="#464653"/>
          <path id="Path_4024" data-name="Path 4024" d="M83.662,13.94a14.055,14.055,0,0,1,6.372,1.407,10.279,10.279,0,0,1,4.414,4.331,15.323,15.323,0,0,1,1.6,7.476V41.5a2.767,2.767,0,0,1-2.759,2.759h-5.9V28.478c0-2.4-.524-4.193-1.572-5.324a5.7,5.7,0,0,0-4.469-1.71,7.784,7.784,0,0,0-3.7.883,6.193,6.193,0,0,0-2.566,2.621,9.815,9.815,0,0,0-.91,4.552V44.285h-5.9a2.767,2.767,0,0,1-2.759-2.759V17.14a2.767,2.767,0,0,1,2.759-2.759h5.517v8.276l-1.545-2.51a11.232,11.232,0,0,1,4.607-4.607A14.122,14.122,0,0,1,83.662,13.94Z" transform="translate(115.196 -5.719)" fill="#464653"/>
          <path id="Path_4025" data-name="Path 4025" d="M30.2,19.236H2.752A2.746,2.746,0,0,1,.3,15.263l2.124-4.3h28.5l1.821,4.5A2.738,2.738,0,0,1,30.2,19.236Z" transform="translate(-0.004 -10.96)" fill="#464653"/>
        </g>
      </g>
    </g>
  </g>
</svg>
