<svg id="Creative_Builder" data-name="Creative Builder" xmlns="http://www.w3.org/2000/svg" width="191.272" height="80" viewBox="0 0 191.272 80">
  <g id="Group_3533" data-name="Group 3533" transform="translate(0)">
    <g id="Group_3531" data-name="Group 3531">
      <path id="Path_4026" data-name="Path 4026" d="M0,17.168a17.428,17.428,0,0,1,1.372-7.084A16.785,16.785,0,0,1,5.106,4.659a16.328,16.328,0,0,1,5.489-3.446A18.468,18.468,0,0,1,17.264,0a21.425,21.425,0,0,1,4.978.542,23.824,23.824,0,0,1,3.765,1.213,21.839,21.839,0,0,1,3.127,1.723l-5.17,9.063a14.614,14.614,0,0,0-1.723-1.117,18.52,18.52,0,0,0-1.978-.766,8.248,8.248,0,0,0-2.617-.351,7.339,7.339,0,0,0-2.808.542A7.149,7.149,0,0,0,12.6,12.318a6.859,6.859,0,0,0-1.468,2.17,6.713,6.713,0,0,0,.032,5.361,6.406,6.406,0,0,0,1.532,2.17A7.449,7.449,0,0,0,15,23.486a7.837,7.837,0,0,0,2.9.542,8.2,8.2,0,0,0,2.776-.415,9,9,0,0,0,2.074-.893,8.618,8.618,0,0,0,1.723-1.276l5.138,9.063a13.3,13.3,0,0,1-3.127,1.947A27.117,27.117,0,0,1,22.72,33.73a20.1,20.1,0,0,1-5.042.574,19.378,19.378,0,0,1-7.052-1.245,16.771,16.771,0,0,1-5.584-3.51,15.692,15.692,0,0,1-3.67-5.425A18.146,18.146,0,0,1,0,17.168Zm6.191,0a11.859,11.859,0,0,1,.8-4.4A10.993,10.993,0,0,1,9.254,9.158a10.82,10.82,0,0,1,3.574-2.393,12.452,12.452,0,0,1,4.723-.893,15.746,15.746,0,0,1,2.266.16,11.528,11.528,0,0,1,1.691.447,7.479,7.479,0,0,1,1.436.574l.67-1.181c-.511-.223-1.085-.447-1.659-.638a17.209,17.209,0,0,0-1.915-.447A14.1,14.1,0,0,0,17.551,4.6a12.875,12.875,0,0,0-4.787.893A12.581,12.581,0,0,0,8.744,8.01,12.772,12.772,0,0,0,5.967,12a12.268,12.268,0,0,0-1.053,5.17,12.924,12.924,0,0,0,.989,5.2A11.991,11.991,0,0,0,8.68,26.326,11.845,11.845,0,0,0,12.8,28.847a14.372,14.372,0,0,0,5.01.862,11.308,11.308,0,0,0,2.649-.255,14.761,14.761,0,0,0,2.01-.542,11.365,11.365,0,0,0,1.659-.766l-.7-1.181a5.737,5.737,0,0,1-1.468.734,9.681,9.681,0,0,1-1.755.511,10.9,10.9,0,0,1-2.393.223,12.4,12.4,0,0,1-4.85-.893,10.177,10.177,0,0,1-3.67-2.393,10.744,10.744,0,0,1-2.3-3.574A11.859,11.859,0,0,1,6.191,17.168Z" transform="translate(0)" fill="#464653"/>
      <path id="Path_4027" data-name="Path 4027" d="M10.69,26.244V6.172a2.506,2.506,0,0,1,2.521-2.521h3.734v6.414l-.893-1.883a7.332,7.332,0,0,1,3.223-3.638A11,11,0,0,1,24.7,3.3V9.395a7.118,7.118,0,0,0-.734-.128,5.17,5.17,0,0,0-.7-.032,6.045,6.045,0,0,0-4.4,1.564,6.342,6.342,0,0,0-1.627,4.787V26.244Z" transform="translate(23.422 7.231)" fill="#464653"/>
      <path id="Path_4028" data-name="Path 4028" d="M29.12,26.595a14.678,14.678,0,0,1-6.765-1.5,11.112,11.112,0,0,1-4.5-4.148,11.388,11.388,0,0,1-1.6-6,11.736,11.736,0,0,1,1.532-6A10.912,10.912,0,0,1,22.068,4.8a12.784,12.784,0,0,1,6.191-1.5,12.531,12.531,0,0,1,6,1.436A10.642,10.642,0,0,1,38.47,8.757a12.123,12.123,0,0,1,1.564,6.254,8.372,8.372,0,0,1-.032.862c-.032.319-.064.638-.1.893H21.557V12.937h14.9l-2.553,1.149a5.828,5.828,0,0,0-.67-3.032,5.294,5.294,0,0,0-1.978-2.042,5.807,5.807,0,0,0-2.936-.734,6.016,6.016,0,0,0-2.968.734,5.039,5.039,0,0,0-2.01,2.074,6.464,6.464,0,0,0-.7,3.127v1.021a6.362,6.362,0,0,0,.83,3.287,5.922,5.922,0,0,0,2.3,2.138,8.059,8.059,0,0,0,3.542.734,8.553,8.553,0,0,0,3.127-.542,7.805,7.805,0,0,0,2.489-1.627l3.478,3.765A10.318,10.318,0,0,1,34.513,25.7,15.525,15.525,0,0,1,29.12,26.595Z" transform="translate(35.627 7.231)" fill="#464653"/>
      <path id="Path_4029" data-name="Path 4029" d="M33.4,26.617a10.39,10.39,0,0,1-4.5-.893,7.234,7.234,0,0,1-2.936-2.457,6.015,6.015,0,0,1-1.021-3.478,5.93,5.93,0,0,1,4.116-5.872,15.451,15.451,0,0,1,5.616-.83H40.64v3.8h-5.3a4.855,4.855,0,0,0-3.159.766,2.438,2.438,0,0,0-.862,1.883,2.394,2.394,0,0,0,.989,2.01,4.522,4.522,0,0,0,2.681.734,5.909,5.909,0,0,0,3-.766,4.227,4.227,0,0,0,1.883-2.3L40.9,22.277a5.882,5.882,0,0,1-2.617,3.255A9.877,9.877,0,0,1,33.4,26.617Zm6.893-.351v-4.4l-.415-.957V12.991A4.233,4.233,0,0,0,38.6,9.7a5.607,5.607,0,0,0-3.925-1.181,11.129,11.129,0,0,0-3.542.574,10.207,10.207,0,0,0-3,1.532l-2.3-4.6A13.726,13.726,0,0,1,30.3,3.992a19.972,19.972,0,0,1,5.3-.7c3.446,0,6.127.83,8.01,2.425,1.915,1.627,2.872,4.148,2.872,7.595V23.745a2.506,2.506,0,0,1-2.521,2.521Z" transform="translate(54.645 7.209)" fill="#464653"/>
      <path id="Path_4030" data-name="Path 4030" d="M33.22,12.4V9.881a2.506,2.506,0,0,1,2.521-2.521H48.888V12.4ZM45.155,29.794a8.868,8.868,0,0,1-6.223-2.042c-1.5-1.372-2.234-3.383-2.234-6.063V1.84h4.085A2.506,2.506,0,0,1,43.3,4.361v17.2a3.246,3.246,0,0,0,.734,2.234,2.53,2.53,0,0,0,2.01.8,4.393,4.393,0,0,0,2.68-.83l1.723,4.627a6.417,6.417,0,0,1-2.361,1.053A12.96,12.96,0,0,1,45.155,29.794Z" transform="translate(72.787 4.032)" fill="#464653"/>
      <path id="Path_4031" data-name="Path 4031" d="M40.31,26V3.41h6.542V26Z" transform="translate(88.322 7.472)" fill="#464653"/>
      <path id="Path_4032" data-name="Path 4032" d="M52.475,26,44.305,6.537A2.249,2.249,0,0,1,46.38,3.41H49.7l7.914,19.465H54.262L62.494,3.41h2.84a2.245,2.245,0,0,1,2.074,3.127L59.208,26Z" transform="translate(96.676 7.472)" fill="#464653"/>
      <path id="Path_4033" data-name="Path 4033" d="M65.35,26.595a14.678,14.678,0,0,1-6.765-1.5,11.112,11.112,0,0,1-4.5-4.148,11.388,11.388,0,0,1-1.6-6,11.736,11.736,0,0,1,1.532-6A10.912,10.912,0,0,1,58.3,4.8a12.783,12.783,0,0,1,6.191-1.5,12.531,12.531,0,0,1,6,1.436A10.642,10.642,0,0,1,74.7,8.757a12.123,12.123,0,0,1,1.564,6.254,8.368,8.368,0,0,1-.032.862c-.032.319-.064.638-.1.893H57.787V12.937h14.9l-2.553,1.149a5.875,5.875,0,0,0-.67-3.063A5.294,5.294,0,0,0,67.488,8.98a5.807,5.807,0,0,0-2.936-.734,6.016,6.016,0,0,0-2.968.734,5.039,5.039,0,0,0-2.01,2.074,6.464,6.464,0,0,0-.7,3.127V15.2a6.362,6.362,0,0,0,.83,3.287A5.922,5.922,0,0,0,62,20.627a8.059,8.059,0,0,0,3.542.734,8.553,8.553,0,0,0,3.127-.542,7.805,7.805,0,0,0,2.489-1.627l3.478,3.765a10.318,10.318,0,0,1-3.893,2.712A14.677,14.677,0,0,1,65.35,26.595Z" transform="translate(115.009 7.231)" fill="#464653"/>
    </g>
    <g id="Group_3532" data-name="Group 3532" transform="translate(33.474 48.855)">
      <path id="Path_4034" data-name="Path 4034" d="M20.031,40.648a10.788,10.788,0,0,1-4.978-1.085A7.649,7.649,0,0,1,11.7,36.245,11.936,11.936,0,0,1,10.49,30.6V20.449a2.492,2.492,0,0,1,2.489-2.489h3.989V29.575a5.931,5.931,0,0,0,1.181,4.116A4.349,4.349,0,0,0,21.5,35a5.187,5.187,0,0,0,2.649-.67A4.832,4.832,0,0,0,26,32.352a7.316,7.316,0,0,0,.67-3.319V17.96h3.957a2.492,2.492,0,0,1,2.489,2.489V40.3H26.956V34.107l1.117,1.851a7.866,7.866,0,0,1-3.319,3.51A9.871,9.871,0,0,1,20.031,40.648Z" transform="translate(-10.49 -9.504)" fill="#464653"/>
      <path id="Path_4035" data-name="Path 4035" d="M19.99,40.3V17.96h6.478V40.3Z" transform="translate(10.325 -9.504)" fill="#464653"/>
      <path id="Path_4036" data-name="Path 4036" d="M24.42,46.1V15.31h3.989A2.492,2.492,0,0,1,30.9,17.8V46.1Z" transform="translate(20.032 -15.31)" fill="#464653"/>
      <path id="Path_4037" data-name="Path 4037" d="M39.485,46.455a11.3,11.3,0,0,1-5.68-1.436A10.282,10.282,0,0,1,29.816,41a12.257,12.257,0,0,1-1.436-6.063,12.257,12.257,0,0,1,1.436-6.063A10.282,10.282,0,0,1,33.8,24.851a11.3,11.3,0,0,1,5.68-1.436,9.57,9.57,0,0,1,4.946,1.245,8.138,8.138,0,0,1,3.287,3.765A15.807,15.807,0,0,1,48.867,34.9a16.5,16.5,0,0,1-1.117,6.478,7.787,7.787,0,0,1-3.223,3.8A9.322,9.322,0,0,1,39.485,46.455Zm1.085-5.329a5.858,5.858,0,0,0,2.9-.734,5.092,5.092,0,0,0,2.042-2.138,6.8,6.8,0,0,0,.766-3.319,6.714,6.714,0,0,0-.766-3.319,5.41,5.41,0,0,0-2.042-2.106,6.049,6.049,0,0,0-5.776,0,5.2,5.2,0,0,0-2.042,2.106,6.714,6.714,0,0,0-.766,3.319,6.8,6.8,0,0,0,.766,3.319A5.291,5.291,0,0,0,37.7,40.392,5.824,5.824,0,0,0,40.57,41.126Zm5.9,4.978V41.541L46.6,34.9,46.186,28.3V15.31h3.989A2.492,2.492,0,0,1,52.664,17.8V46.1Z" transform="translate(28.708 -15.31)" fill="#464653"/>
      <path id="Path_4038" data-name="Path 4038" d="M50.559,40.846a14.183,14.183,0,0,1-6.669-1.5,10.994,10.994,0,0,1-4.436-4.085,11.108,11.108,0,0,1-1.564-5.9,11.886,11.886,0,0,1,1.5-5.935,10.673,10.673,0,0,1,4.244-4.085,13.317,13.317,0,0,1,12.03-.064,10.69,10.69,0,0,1,4.18,3.989,11.876,11.876,0,0,1,1.532,6.191,8.372,8.372,0,0,1-.032.862c-.032.319-.064.606-.1.894H43.091V27.443H57.834L55.313,28.56a5.828,5.828,0,0,0-.67-3.032,5.131,5.131,0,0,0-1.947-2.01,5.687,5.687,0,0,0-2.9-.734,5.893,5.893,0,0,0-2.936.734,5.084,5.084,0,0,0-1.978,2.042,6.335,6.335,0,0,0-.7,3.1v.989a6.127,6.127,0,0,0,.83,3.223,5.248,5.248,0,0,0,2.3,2.106,7.772,7.772,0,0,0,3.478.734,8.5,8.5,0,0,0,3.1-.542,7.181,7.181,0,0,0,2.457-1.627l3.446,3.734a10.236,10.236,0,0,1-3.861,2.68A15.47,15.47,0,0,1,50.559,40.846Z" transform="translate(49.545 -9.701)" fill="#464653"/>
      <path id="Path_4039" data-name="Path 4039" d="M47.11,40.538V20.69A2.492,2.492,0,0,1,49.6,18.2h3.7v6.35l-.862-1.883a7.334,7.334,0,0,1,3.191-3.606,10.741,10.741,0,0,1,5.361-1.213v6.031a5.89,5.89,0,0,0-.734-.128,4.941,4.941,0,0,0-.67-.032,6.137,6.137,0,0,0-4.372,1.532,6.185,6.185,0,0,0-1.627,4.723V40.507H47.11Z" transform="translate(69.747 -9.745)" fill="#464653"/>
    </g>
    <circle id="Ellipse_184" data-name="Ellipse 184" cx="5.201" cy="5.201" r="5.201" transform="translate(177.264 69.214)" fill="#6768a6"/>
  </g>
  <path id="Path_4040" data-name="Path 4040" d="M46.808,3.241V7.2H40.33V.72h3.989A2.52,2.52,0,0,1,46.808,3.241Z" transform="translate(88.366 1.578)" fill="#eb8d8a"/>
  <path id="Path_4041" data-name="Path 4041" d="M26.458,17.769v3.957H19.98V15.28h3.989A2.492,2.492,0,0,1,26.458,17.769Z" transform="translate(43.777 33.479)" fill="#eb8d8a"/>
  <g id="Group_3534" data-name="Group 3534" transform="translate(0 48.632)">
    <path id="Path_4042" data-name="Path 4042" d="M0,44.151V17.538a2.288,2.288,0,0,1,2.3-2.3H15.253c3.925,0,6.861.734,8.839,2.234a7.017,7.017,0,0,1,2.968,5.872,7.457,7.457,0,0,1-1.213,4.244,7.676,7.676,0,0,1-3.319,2.776,10.976,10.976,0,0,1-4.787.989l.862-1.883a12.712,12.712,0,0,1,5.2.989,8.038,8.038,0,0,1,3.542,2.84,7.884,7.884,0,0,1,1.308,4.6A7.236,7.236,0,0,1,25.5,44.151c-2.106,1.5-5.2,2.266-9.318,2.266H2.3A2.242,2.242,0,0,1,0,44.151Zm7.18-3.127h8.456A8.133,8.133,0,0,0,19.88,40.1a3.2,3.2,0,0,0,1.468-2.9,3.182,3.182,0,0,0-1.468-2.936,7.813,7.813,0,0,0-4.244-.957h-9V28.036H14.36a7.344,7.344,0,0,0,4.021-.925,3.1,3.1,0,0,0,1.4-2.776,3.1,3.1,0,0,0-1.4-2.776,7.364,7.364,0,0,0-4.021-.894H7.18Z" transform="translate(0 -15.24)" fill="#464653"/>
  </g>
</svg>
