<svg xmlns="http://www.w3.org/2000/svg" xmlns:xlink="http://www.w3.org/1999/xlink" width="25" height="25" viewBox="0 0 25 25">
  <defs>
    <clipPath id="nav-video">
      <rect id="Rectangle_957" data-name="Rectangle 957" width="25" height="25" transform="translate(300 224)" fill="#6768a6"/>
    </clipPath>
  </defs>
  <g id="Youtube" transform="translate(-300 -224)" clip-path="url(#nav-video)">
    <g id="Youtube_1" data-name="Youtube 1" transform="translate(300.53 224.502)">
      <g id="_Group_" data-name="&lt;Group&gt;" transform="translate(0.47 3.5)">
        <g id="_Group_2" data-name="&lt;Group&gt;" transform="translate(9.007 3.99)">
          <path id="_Path_" data-name="&lt;Path&gt;" d="M9.5,7.5v8.977l6.982-4.488Z" transform="translate(-9.5 -7.5)" fill="none" stroke="#6768a6" stroke-linecap="round" stroke-linejoin="round" stroke-width="1"/>
        </g>
        <path id="_Path_2" data-name="&lt;Path&gt;" d="M3.123,4.168l1.865-.239A56.074,56.074,0,0,1,11.97,3.5h0a56.073,56.073,0,0,1,6.982.429l1.9.239A2.992,2.992,0,0,1,23.47,7.16v9.675a2.992,2.992,0,0,1-2.623,2.992l-1.9.239a56.073,56.073,0,0,1-6.982.429h0a56.074,56.074,0,0,1-6.982-.429l-1.9-.239A2.992,2.992,0,0,1,.47,16.835V7.14A2.992,2.992,0,0,1,3.122,4.168Z" transform="translate(-0.47 -3.5)" fill="none" stroke="#6768a6" stroke-linecap="round" stroke-linejoin="round" stroke-width="1"/>
      </g>
    </g>
  </g>
</svg>
