<svg xmlns="http://www.w3.org/2000/svg" xmlns:xlink="http://www.w3.org/1999/xlink" width="25" height="25" viewBox="0 0 25 25">
  <defs>
    <clipPath id="open-book">
      <rect id="Rectangle_840" data-name="Rectangle 840" width="25" height="25" transform="translate(300 224)" fill="#fffffb"/>
    </clipPath>
  </defs>
  <g id="open-book" transform="translate(-300 -224)" clip-path="url(#open-book)">
    <g id="open-book-2" data-name="open-book" transform="translate(300 224)">
      <g id="Group_3441" data-name="Group 3441" transform="translate(0)">
        <g id="Group_3440" data-name="Group 3440" transform="translate(0 0)">
          <path id="Path_3761" data-name="Path 3761" d="M290.175,198.539a.417.417,0,0,0,.561.182,35.72,35.72,0,0,1,3.687-1.64.417.417,0,0,0-.252-.795,35.739,35.739,0,0,0-3.813,1.693A.417.417,0,0,0,290.175,198.539Z" transform="translate(-275.964 -186.683)" fill="#6768a6"/>
          <path id="Path_3762" data-name="Path 3762" d="M290.547,96.367a.416.416,0,0,0,.189-.045,35.715,35.715,0,0,1,3.687-1.64.417.417,0,0,0-.252-.795,35.743,35.743,0,0,0-3.813,1.693.417.417,0,0,0,.19.788Z" transform="translate(-275.964 -89.284)" fill="#6768a6"/>
          <path id="Path_3763" data-name="Path 3763" d="M24.585,6.25a.417.417,0,0,0-.417.417v16.25a1.252,1.252,0,0,1-1.25,1.25h-10v-.959a12.279,12.279,0,0,1,3.75-.708,21.492,21.492,0,0,1,6.119.812.417.417,0,0,0,.548-.4V4.583a.416.416,0,0,0-.326-.407S22.682,4.1,22.124,4a.417.417,0,0,0-.151.82c.213.039.391.074.529.1V22.363a23.531,23.531,0,0,0-5.833-.7,13.09,13.09,0,0,0-4.15.8,9.761,9.761,0,0,0-3.766-.8,28.078,28.078,0,0,0-6.25.714V4.906a27.426,27.426,0,0,1,6.25-.739,9.034,9.034,0,0,1,3.333.687v16.4a.417.417,0,0,0,.631.357A47.7,47.7,0,0,1,20.55,17.9a.417.417,0,0,0,.285-.4V.417a.417.417,0,0,0-.563-.39A44.323,44.323,0,0,0,13.531,3.4a.417.417,0,0,0,.442.707A44.534,44.534,0,0,1,20,1.026V17.2a46.694,46.694,0,0,0-7.083,3.325V4.583a.417.417,0,0,0-.23-.373,9.648,9.648,0,0,0-3.936-.877,27.043,27.043,0,0,0-6.781.85.416.416,0,0,0-.3.4V22.917a.416.416,0,0,0,.417.417.411.411,0,0,0,.114-.016A26.765,26.765,0,0,1,8.752,22.5a9.014,9.014,0,0,1,3.333.687v.98h-10a1.252,1.252,0,0,1-1.25-1.25V6.667a.417.417,0,1,0-.833,0v16.25A2.086,2.086,0,0,0,2.085,25H22.919A2.086,2.086,0,0,0,25,22.917V6.667A.417.417,0,0,0,24.585,6.25Z" transform="translate(-0.002 0)" fill="#6768a6"/>
          <path id="Path_3764" data-name="Path 3764" d="M290.175,147.339a.417.417,0,0,0,.561.182,35.728,35.728,0,0,1,3.687-1.64.417.417,0,0,0-.252-.795,35.737,35.737,0,0,0-3.813,1.693A.417.417,0,0,0,290.175,147.339Z" transform="translate(-275.964 -137.983)" fill="#6768a6"/>
          <path id="Path_3765" data-name="Path 3765" d="M290.175,249.739a.417.417,0,0,0,.561.182,35.729,35.729,0,0,1,3.687-1.64.417.417,0,0,0-.252-.795,35.732,35.732,0,0,0-3.813,1.693A.417.417,0,0,0,290.175,249.739Z" transform="translate(-275.964 -235.383)" fill="#6768a6"/>
          <path id="Path_3766" data-name="Path 3766" d="M91.262,153.875a13.224,13.224,0,0,0-5.62.2.417.417,0,0,0,.108.819.424.424,0,0,0,.108-.014,12.557,12.557,0,0,1,5.214-.192.417.417,0,1,0,.19-.811Z" transform="translate(-81.167 -146.142)" fill="#6768a6"/>
          <path id="Path_3767" data-name="Path 3767" d="M91.262,205.079a13.231,13.231,0,0,0-5.62.2.417.417,0,0,0,.108.819.423.423,0,0,0,.108-.014,12.557,12.557,0,0,1,5.214-.192.417.417,0,1,0,.19-.811Z" transform="translate(-81.167 -194.846)" fill="#6768a6"/>
          <path id="Path_3768" data-name="Path 3768" d="M290.175,300.939a.417.417,0,0,0,.561.182,35.721,35.721,0,0,1,3.687-1.64.417.417,0,0,0-.252-.795,35.743,35.743,0,0,0-3.813,1.693A.417.417,0,0,0,290.175,300.939Z" transform="translate(-275.964 -284.083)" fill="#6768a6"/>
          <path id="Path_3769" data-name="Path 3769" d="M91.262,256.277a13.224,13.224,0,0,0-5.62.2.417.417,0,0,0,.108.82.424.424,0,0,0,.108-.015,12.556,12.556,0,0,1,5.214-.192.417.417,0,1,0,.19-.811Z" transform="translate(-81.167 -243.545)" fill="#6768a6"/>
          <path id="Path_3770" data-name="Path 3770" d="M91.262,358.675a13.225,13.225,0,0,0-5.62.2.417.417,0,0,0,.108.82.424.424,0,0,0,.108-.015,12.558,12.558,0,0,1,5.214-.192.417.417,0,1,0,.19-.811Z" transform="translate(-81.167 -340.942)" fill="#6768a6"/>
          <path id="Path_3771" data-name="Path 3771" d="M91.262,307.474a13.214,13.214,0,0,0-5.62.2.417.417,0,1,0,.216.8,12.559,12.559,0,0,1,5.214-.192.417.417,0,1,0,.19-.811Z" transform="translate(-81.167 -292.241)" fill="#6768a6"/>
        </g>
      </g>
    </g>
  </g>
</svg>
