<svg xmlns="http://www.w3.org/2000/svg" xmlns:xlink="http://www.w3.org/1999/xlink" width="25" height="25" viewBox="0 0 25 25">
  <defs>
    <clipPath id="picture-filled">
      <rect id="Rectangle_882" data-name="Rectangle 882" width="25" height="25" transform="translate(0 0)" fill="#6768a6" stroke="#777" stroke-width="1"/>
    </clipPath>
    <clipPath id="picture-filled-2">
      <rect id="Rectangle_881" data-name="Rectangle 881" width="25" height="21.214" fill="#6768a6"/>
    </clipPath>
  </defs>
  <g id="picture-2" clip-path="url(#picture-filled)">
    <g id="Group_3473" data-name="Group 3473" transform="translate(0 1.893)">
      <g id="Group_3472" data-name="Group 3472" transform="translate(0 0)" clip-path="url(#picture-filled-2)">
        <path id="Path_3912" data-name="Path 3912" d="M22.822,21.214H2.178A2.18,2.18,0,0,1,0,19.036V2.178A2.18,2.18,0,0,1,2.178,0H22.822A2.181,2.181,0,0,1,25,2.178V19.036a2.181,2.181,0,0,1-2.178,2.178M2.178,1.725a.453.453,0,0,0-.453.453V19.036a.454.454,0,0,0,.453.454H22.822a.454.454,0,0,0,.454-.454V2.178a.454.454,0,0,0-.454-.453Z" transform="translate(-0.001 0)" fill="#6768a6"/>
        <path id="Path_3913" data-name="Path 3913" d="M15.623,11.114A2.313,2.313,0,1,1,13.31,8.8a2.313,2.313,0,0,1,2.313,2.313" transform="translate(-5.639 -4.513)" fill="#6768a6"/>
        <path id="Path_3914" data-name="Path 3914" d="M12.947,13.409a2.658,2.658,0,1,1,2.658-2.658,2.661,2.661,0,0,1-2.658,2.658m0-4.626a1.968,1.968,0,1,0,1.968,1.968,1.97,1.97,0,0,0-1.968-1.968" transform="translate(-5.276 -4.15)" fill="#6768a6"/>
        <path id="Path_3915" data-name="Path 3915" d="M1.77,24.208l4.586-4.586,3.717,3.716,9.79-9.79,5.016,5.016v6.151A2.583,2.583,0,0,1,22.3,27.3H4.353A2.583,2.583,0,0,1,1.77,24.717Z" transform="translate(-0.908 -6.948)" fill="#6768a6"/>
        <path id="Path_3916" data-name="Path 3916" d="M21.872,27.278H3.93A2.989,2.989,0,0,1,.944,24.293v-.508a.4.4,0,0,1,.118-.285l4.586-4.586a.4.4,0,0,1,.569,0l3.432,3.432,9.506-9.506a.4.4,0,0,1,.569,0l5.016,5.017a.4.4,0,0,1,.118.285v6.151a2.989,2.989,0,0,1-2.986,2.986M1.749,23.951v.342A2.183,2.183,0,0,0,3.93,26.474H21.872a2.183,2.183,0,0,0,2.181-2.181V18.308l-4.614-4.614L9.934,23.2a.4.4,0,0,1-.569,0L5.932,19.768Z" transform="translate(-0.484 -6.524)" fill="#6768a6"/>
      </g>
    </g>
  </g>
</svg>
