<svg xmlns="http://www.w3.org/2000/svg" width="19.286" height="17.143" viewBox="0 0 19.286 17.143">
  <path id="Icon_awesome-lock-open" data-name="Icon awesome-lock-open" d="M14.18,0A5.122,5.122,0,0,0,9.107,5.139V7.5h-7.5A1.608,1.608,0,0,0,0,9.107v6.429a1.608,1.608,0,0,0,1.607,1.607H13.393A1.608,1.608,0,0,0,15,15.536V9.107A1.608,1.608,0,0,0,13.393,7.5H11.786V5.119a2.411,2.411,0,1,1,4.821-.03V7.768a.8.8,0,0,0,.8.8h1.071a.8.8,0,0,0,.8-.8V5.089A5.1,5.1,0,0,0,14.18,0Z" transform="translate(0 0)" fill="#464653"/>
</svg>
