<svg xmlns="http://www.w3.org/2000/svg" xmlns:xlink="http://www.w3.org/1999/xlink" width="25" height="25" viewBox="0 0 25 25">
  <defs>
    <clipPath id="searching">
      <rect id="Rectangle_880" data-name="Rectangle 880" width="25" height="25" transform="translate(594 125)" fill="#fffffb"/>
    </clipPath>
  </defs>
  <g id="searching" transform="translate(-594 -125)" clip-path="url(#searching)">
    <g id="searching-2" data-name="searching" transform="translate(594 125)">
      <path id="Path_3897" data-name="Path 3897" d="M445.818,221.867h-1.667a.417.417,0,0,0,0,.833h1.667a.417.417,0,0,1,.417.417v4.167a.417.417,0,0,1-.417.417h-1.667a.417.417,0,0,0,0,.833h1.667a1.25,1.25,0,0,0,1.25-1.25v-4.167A1.25,1.25,0,0,0,445.818,221.867Zm0,0" transform="translate(-422.068 -211.034)" fill="#6768a6"/>
      <path id="Path_3898" data-name="Path 3898" d="M1.25,212.3h5a.417.417,0,1,0,0-.833h-5a.417.417,0,0,1-.417-.417v-4.167a.417.417,0,0,1,.417-.417h5a.417.417,0,1,0,0-.833H2.917v-.417a.417.417,0,0,0-.833,0v.417H1.25A1.25,1.25,0,0,0,0,206.884v4.167A1.25,1.25,0,0,0,1.25,212.3Zm0,0" transform="translate(0 -194.801)" fill="#6768a6"/>
      <path id="Path_3899" data-name="Path 3899" d="M184.616,179.2a5.417,5.417,0,1,0,5.417,5.417A5.417,5.417,0,0,0,184.616,179.2Zm0,10a4.583,4.583,0,1,1,4.583-4.583A4.583,4.583,0,0,1,184.616,189.2Zm0,0" transform="translate(-170.449 -170.449)" fill="#6768a6"/>
      <path id="Path_3900" data-name="Path 3900" d="M42.668,256.417v2.5a.417.417,0,0,0,.833,0v-2.5a.417.417,0,1,0-.833,0Zm0,0" transform="translate(-40.585 -243.5)" fill="#6768a6"/>
      <path id="Path_3901" data-name="Path 3901" d="M158.064,156.07a.417.417,0,0,0-.586,0l-.4.4-.674-.674s-.006,0-.009-.006a7.11,7.11,0,1,0-.586.586s0,.007.006.009l.674.674-.481.481a.416.416,0,0,0,0,.593l3.441,3.364a1.458,1.458,0,0,0,2.059-2.066Zm-6.958,1.277a6.25,6.25,0,1,1,6.25-6.25A6.25,6.25,0,0,1,151.106,157.346Zm6.67-.393,2.427,2.375-.884.884-2.427-2.373Zm3.147,3.958a.625.625,0,0,1-.887,0l-.12-.117.884-.884.125.121a.625.625,0,0,1,0,.883Zm0,0" transform="translate(-136.939 -136.93)" fill="#6768a6"/>
      <path id="Path_3902" data-name="Path 3902" d="M228.338,256.021a.417.417,0,0,0-.559.187l-1.239,2.478-.914-2.438a.417.417,0,0,0-.781,0l-.914,2.438-1.237-2.478a.417.417,0,1,0-.746.372l1.667,3.333a.411.411,0,0,0,.395.23.417.417,0,0,0,.369-.27l.858-2.293.86,2.292a.417.417,0,0,0,.369.27h.022a.417.417,0,0,0,.375-.23l1.667-3.333A.417.417,0,0,0,228.338,256.021Zm0,0" transform="translate(-211.069 -243.478)" fill="#6768a6"/>
      <path id="Path_3903" data-name="Path 3903" d="M.833,2.5h6.25a.833.833,0,0,0,.833-.833V.833A.833.833,0,0,0,7.083,0H.833A.833.833,0,0,0,0,.833v.833A.833.833,0,0,0,.833,2.5Zm0-1.667h6.25v.833H.833Zm0,0" fill="#6768a6"/>
      <path id="Path_3904" data-name="Path 3904" d="M238.934,69.1v.833a.833.833,0,0,0,.833.833h6.25a.833.833,0,0,0,.833-.833V69.1a.833.833,0,0,0-.833-.833h-6.25A.833.833,0,0,0,238.934,69.1Zm7.083.833h-6.25V69.1h6.25Zm0,0" transform="translate(-227.267 -64.932)" fill="#6768a6"/>
      <path id="Path_3905" data-name="Path 3905" d="M180.033,2.5h3.333a.833.833,0,0,0,.833-.833V.833A.833.833,0,0,0,183.366,0h-3.333a.833.833,0,0,0-.833.833v.833A.833.833,0,0,0,180.033,2.5Zm0-1.667h3.333v.833h-3.333Zm0,0" transform="translate(-170.449)" fill="#6768a6"/>
      <path id="Path_3906" data-name="Path 3906" d="M120.3,68.266a.833.833,0,0,0-.834.833v.833a.833.833,0,0,0,.834.833h3.333a.833.833,0,0,0,.833-.833V69.1a.833.833,0,0,0-.833-.833Zm0,1.667V69.1h3.333v.833Zm0,0" transform="translate(-113.632 -64.932)" fill="#6768a6"/>
      <path id="Path_3907" data-name="Path 3907" d="M.833,70.766h1.25v.417a.417.417,0,1,0,.833,0v-.417h1.25A.833.833,0,0,0,5,69.932V69.1a.833.833,0,0,0-.833-.833H.833A.833.833,0,0,0,0,69.1v.833A.833.833,0,0,0,.833,70.766Zm0-1.667H4.167v.833H.833Zm0,0" transform="translate(0 -64.932)" fill="#6768a6"/>
      <path id="Path_3908" data-name="Path 3908" d="M299.5,2.5h1.667A.833.833,0,0,0,302,1.667V.833A.833.833,0,0,0,301.168,0H299.5a.833.833,0,0,0-.833.833v.833A.833.833,0,0,0,299.5,2.5Zm0-1.667h1.667v.833H299.5Zm0,0" transform="translate(-284.085)" fill="#6768a6"/>
      <path id="Path_3909" data-name="Path 3909" d="M421.883,68.266h-2.917a.833.833,0,0,0-.833.833v.833a.833.833,0,0,0,.833.833h2.917a.833.833,0,0,0,.833-.833V69.1A.833.833,0,0,0,421.883,68.266Zm-2.917,1.667V69.1h2.917v.833Zm0,0" transform="translate(-397.716 -64.932)" fill="#6768a6"/>
      <path id="Path_3910" data-name="Path 3910" d="M389.417,0h-4.583A.833.833,0,0,0,384,.833v.833a.833.833,0,0,0,.833.833h4.583a.833.833,0,0,0,.833-.833V.833A.833.833,0,0,0,389.417,0Zm-4.583,1.667V.833h4.583v.833Zm0,0" transform="translate(-365.25)" fill="#6768a6"/>
      <path id="Path_3911" data-name="Path 3911" d="M43.085,153.6a.417.417,0,0,0-.417.417v.833a.417.417,0,1,0,.833,0v-.833A.417.417,0,0,0,43.085,153.6Zm0,0" transform="translate(-40.585 -146.101)" fill="#6768a6"/>
    </g>
  </g>
</svg>
