<svg xmlns="http://www.w3.org/2000/svg" width="17" height="16.23" viewBox="0 0 17 16.23">
  <g id="user" transform="translate(-2.033 -2.125)">
    <path id="Ellipse_193" data-name="Ellipse 193" d="M4.937-.75A5.687,5.687,0,1,1-.75,4.937,5.693,5.693,0,0,1,4.937-.75Zm0,9.874A4.187,4.187,0,1,0,.75,4.937,4.192,4.192,0,0,0,4.937,9.124Z" transform="translate(5.574 3.125)" fill="#464653"/>
    <path id="Ellipse_193_-_Outline" data-name="Ellipse 193 - Outline" d="M4.937-1A5.937,5.937,0,1,1-1,4.937,5.944,5.944,0,0,1,4.937-1Zm0,11.374A5.437,5.437,0,1,0-.5,4.937,5.443,5.443,0,0,0,4.937,10.374ZM4.937.5A4.437,4.437,0,1,1,.5,4.937,4.442,4.442,0,0,1,4.937.5Zm0,8.374A3.937,3.937,0,1,0,1,4.937,3.941,3.941,0,0,0,4.937,8.874Z" transform="translate(5.574 3.125)" fill="#464653"/>
    <path id="Path_4106" data-name="Path 4106" d="M45.99,165.079a.75.75,0,0,1-.65-.375,7.912,7.912,0,0,0-13.7,0,.75.75,0,1,1-1.3-.75,9.439,9.439,0,0,1,8.149-4.7h0a9.438,9.438,0,0,1,8.149,4.7.75.75,0,0,1-.649,1.125Z" transform="translate(-27.956 -146.974)" fill="#464653"/>
    <path id="Path_4106_-_Outline" data-name="Path 4106 - Outline" d="M45.99,165.329h0a1,1,0,0,1-.867-.5,7.662,7.662,0,0,0-13.268,0,1,1,0,1,1-1.732-1,9.662,9.662,0,0,1,16.732,0,1,1,0,0,1-.865,1.5Zm-7.5-4.829h0a8.185,8.185,0,0,1,7.067,4.079.5.5,0,0,0,.434.25h0a.5.5,0,0,0,.432-.75,9.162,9.162,0,0,0-15.866,0,.5.5,0,1,0,.866.5A8.185,8.185,0,0,1,38.489,160.5Z" transform="translate(-27.956 -146.974)" fill="#464653"/>
  </g>
</svg>
