<svg xmlns="http://www.w3.org/2000/svg" width="15" height="15" viewBox="0 0 15 15">
  <path id="volume_off" d="M14.25,10.5a3.75,3.75,0,0,0-2.083-3.358V8.983l2.042,2.042A3.527,3.527,0,0,0,14.25,10.5Zm2.083,0a5.7,5.7,0,0,1-.45,2.2l1.258,1.258A7.33,7.33,0,0,0,18,10.5a7.5,7.5,0,0,0-5.833-7.308V4.908A5.838,5.838,0,0,1,16.333,10.5ZM4.058,3,3,4.058,6.942,8H3v5H6.333L10.5,17.167V11.558L14.042,15.1a5.77,5.77,0,0,1-1.875.983V17.8a7.491,7.491,0,0,0,3.075-1.508L16.942,18,18,16.942l-7.5-7.5Zm6.442.833L8.758,5.575,10.5,7.317Z" transform="translate(-3 -3)" fill="#464653"/>
</svg>
