<svg id="pause" xmlns="http://www.w3.org/2000/svg" width="9.6" height="12" viewBox="0 0 9.6 12">
  <path id="Path_960" data-name="Path 960" d="M11.7,18.75H9.3a.3.3,0,0,1-.3-.3V7.05a.3.3,0,0,1,.3-.3H11.7a.3.3,0,0,1,.3.3v11.4A.3.3,0,0,1,11.7,18.75Z" transform="translate(-9 -6.75)" fill="#464653"/>
  <path id="Path_961" data-name="Path 961" d="M24.071,18.75H21.679a.3.3,0,0,1-.3-.3V7.05a.3.3,0,0,1,.3-.3h2.392a.3.3,0,0,1,.3.3v11.4A.3.3,0,0,1,24.071,18.75Z" transform="translate(-14.775 -6.75)" fill="#464653"/>
</svg>
