<svg id="view" xmlns="http://www.w3.org/2000/svg" xmlns:xlink="http://www.w3.org/1999/xlink" width="25" height="25" viewBox="0 0 25 25">
  <defs>
    <clipPath id="view">
      <rect id="Rectangle_177" data-name="Rectangle 177" width="25" height="25" transform="translate(300 224)" fill="#6768a6"/>
    </clipPath>
  </defs>
  <g id="Mask_Group_2" data-name="Mask Group 2" transform="translate(-300 -224)" clip-path="url(#view)">
    <path id="search" d="M12.109,17.578a.977.977,0,0,1,0,1.953H10.742a.977.977,0,0,1,0-1.953Zm8.008-5.225a.976.976,0,0,0-.977-.977h-8.4a.977.977,0,0,0,0,1.953h8.4A.976.976,0,0,0,20.117,12.354ZM10.742,7.471h8.4a.977.977,0,0,0,0-1.953h-8.4a.977.977,0,0,0,0,1.953ZM6.836,17.578H5.859a.977.977,0,0,0,0,1.953h.977a.977.977,0,0,0,0-1.953Zm0-6.2H5.859a.977.977,0,0,0,0,1.953h.977a.977.977,0,0,0,0-1.953Zm0-5.859H5.859a.977.977,0,0,0,0,1.953h.977a.977.977,0,0,0,0-1.953ZM24.714,23.333a.977.977,0,0,1-1.381,1.381l-1.652-1.652A4.4,4.4,0,1,1,23.1,21.714Zm-5.28-1.6a2.441,2.441,0,1,0-2.441-2.441A2.444,2.444,0,0,0,19.434,21.729ZM21.094,0H3.906A3.911,3.911,0,0,0,0,3.906V21.094A3.911,3.911,0,0,0,3.906,25H13.965a.977.977,0,0,0,0-1.953H3.906a1.955,1.955,0,0,1-1.953-1.953V3.906A1.955,1.955,0,0,1,3.906,1.953H21.094a1.955,1.955,0,0,1,1.953,1.953v9.668a.977.977,0,0,0,1.953,0V3.906A3.911,3.911,0,0,0,21.094,0Zm0,0" transform="translate(300 224)" fill="#6768a6"/>
  </g>
</svg>
