<svg id="Background" xmlns="http://www.w3.org/2000/svg" xmlns:xlink="http://www.w3.org/1999/xlink" width="1920" height="1080" viewBox="0 0 1920 1080">
  <defs>
    <clipPath id="clip-path">
      <rect id="Rectangle_166" data-name="Rectangle 166" width="1920" height="1080" fill="#fffffb" stroke="#777" stroke-width="1"/>
    </clipPath>
    <linearGradient id="linear-gradient" x1="0.478" y1="-0.267" x2="0.5" y2="1" gradientUnits="objectBoundingBox">
      <stop offset="0" stop-color="#fffffb"/>
      <stop offset="1" stop-color="#8ff4d2"/>
    </linearGradient>
    <filter id="Ellipse_1" x="395.052" y="763.082" width="245.811" height="245.812" filterUnits="userSpaceOnUse">
      <feOffset dy="3" input="SourceAlpha"/>
      <feGaussianBlur stdDeviation="3" result="blur"/>
      <feFlood flood-opacity="0.161"/>
      <feComposite operator="in" in2="blur"/>
      <feComposite in="SourceGraphic"/>
    </filter>
    <linearGradient id="linear-gradient-2" x1="-0.694" y1="-0.407" x2="1" y2="1" gradientUnits="objectBoundingBox">
      <stop offset="0" stop-color="#fffffb"/>
      <stop offset="1" stop-color="#fb8888"/>
    </linearGradient>
    <linearGradient id="linear-gradient-123" x1="1.007" y1="-0.508" x2="0.5" y2="1" xlink:href="#linear-gradient-2"/>
    <filter id="Path_81" x="107.807" y="383.788" width="270.425" height="226.041" filterUnits="userSpaceOnUse">
      <feOffset dy="3" input="SourceAlpha"/>
      <feGaussianBlur stdDeviation="3" result="blur-2"/>
      <feFlood flood-opacity="0.161"/>
      <feComposite operator="in" in2="blur-2"/>
      <feComposite in="SourceGraphic"/>
    </filter>
    <filter id="Rectangle_164" x="-258.012" y="476.604" width="815.994" height="751.987" filterUnits="userSpaceOnUse">
      <feOffset dy="3" input="SourceAlpha"/>
      <feGaussianBlur stdDeviation="3" result="blur-3"/>
      <feFlood flood-opacity="0.161"/>
      <feComposite operator="in" in2="blur-3"/>
      <feComposite in="SourceGraphic"/>
    </filter>
    <linearGradient id="linear-gradient-124" x1="0.462" y1="-0.182" x2="0.5" y2="1" gradientUnits="objectBoundingBox">
      <stop offset="0" stop-color="#a4b1ef"/>
      <stop offset="1" stop-color="#6768a6"/>
    </linearGradient>
    <filter id="Ellipse_158" x="1617.458" y="225.887" width="194.93" height="194.93" filterUnits="userSpaceOnUse">
      <feOffset dy="3" input="SourceAlpha"/>
      <feGaussianBlur stdDeviation="3" result="blur-4"/>
      <feFlood flood-opacity="0.161"/>
      <feComposite operator="in" in2="blur-4"/>
      <feComposite in="SourceGraphic"/>
    </filter>
    <filter id="Path_3716" x="886.545" y="-720.426" width="1242.168" height="1468.853" filterUnits="userSpaceOnUse">
      <feOffset dy="3" input="SourceAlpha"/>
      <feGaussianBlur stdDeviation="3" result="blur-5"/>
      <feFlood flood-opacity="0.161"/>
      <feComposite operator="in" in2="blur-5"/>
      <feComposite in="SourceGraphic"/>
    </filter>
    <filter id="Ellipse_157" x="1359.752" y="572.994" width="853.8" height="853.8" filterUnits="userSpaceOnUse">
      <feOffset dy="3" input="SourceAlpha"/>
      <feGaussianBlur stdDeviation="3" result="blur-6"/>
      <feFlood flood-opacity="0.161"/>
      <feComposite operator="in" in2="blur-6"/>
      <feComposite in="SourceGraphic"/>
    </filter>
  </defs>
  <rect id="Rectangle_167" data-name="Rectangle 167" width="1920" height="1080" fill="#fffffb"/>
  <g id="Background-2" data-name="Background" clip-path="url(#clip-path)">
    <g id="Group_149" data-name="Group 149">
      <g transform="matrix(1, 0, 0, 1, 0, 0)" filter="url(#Ellipse_1)">
        <circle id="Ellipse_1-2" data-name="Ellipse 1" cx="80.544" cy="80.544" r="80.544" transform="translate(404.05 882.99) rotate(-45)" opacity="0.884" fill="url(#linear-gradient)"/>
      </g>
      <g id="Group_66" data-name="Group 66" transform="translate(60.356 -112.209)" opacity="0.598">
        <rect id="Rectangle_5" data-name="Rectangle 5" width="5.284" height="5.284" fill="url(#linear-gradient-2)"/>
        <rect id="Rectangle_6" data-name="Rectangle 6" width="5.284" height="5.284" transform="translate(0 31.948)" fill="url(#linear-gradient-2)"/>
        <rect id="Rectangle_7" data-name="Rectangle 7" width="5.284" height="5.284" transform="translate(0 63.896)" fill="url(#linear-gradient-2)"/>
        <rect id="Rectangle_8" data-name="Rectangle 8" width="5.284" height="5.284" transform="translate(0 95.844)" fill="url(#linear-gradient-2)"/>
        <rect id="Rectangle_9" data-name="Rectangle 9" width="5.284" height="5.284" transform="translate(0 127.792)" fill="url(#linear-gradient-2)"/>
        <rect id="Rectangle_10" data-name="Rectangle 10" width="5.284" height="5.285" transform="translate(0 159.74)" fill="url(#linear-gradient-2)"/>
        <rect id="Rectangle_11" data-name="Rectangle 11" width="5.284" height="5.284" transform="translate(0 191.688)" fill="url(#linear-gradient-2)"/>
        <rect id="Rectangle_12" data-name="Rectangle 12" width="5.284" height="5.284" transform="translate(0 223.636)" fill="url(#linear-gradient-2)"/>
        <rect id="Rectangle_13" data-name="Rectangle 13" width="5.284" height="5.284" transform="translate(0 255.584)" fill="url(#linear-gradient-2)"/>
        <rect id="Rectangle_14" data-name="Rectangle 14" width="5.284" height="5.284" transform="translate(0 287.531)" fill="url(#linear-gradient-2)"/>
        <rect id="Rectangle_15" data-name="Rectangle 15" width="5.284" height="5.284" transform="translate(0 319.48)" fill="url(#linear-gradient-2)"/>
        <rect id="Rectangle_16" data-name="Rectangle 16" width="5.285" height="5.284" transform="translate(28.926)" fill="url(#linear-gradient-2)"/>
        <rect id="Rectangle_17" data-name="Rectangle 17" width="5.285" height="5.284" transform="translate(28.926 31.948)" fill="url(#linear-gradient-2)"/>
        <rect id="Rectangle_18" data-name="Rectangle 18" width="5.285" height="5.284" transform="translate(28.926 63.896)" fill="url(#linear-gradient-2)"/>
        <rect id="Rectangle_19" data-name="Rectangle 19" width="5.285" height="5.284" transform="translate(28.926 95.844)" fill="url(#linear-gradient-2)"/>
        <rect id="Rectangle_20" data-name="Rectangle 20" width="5.285" height="5.284" transform="translate(28.926 127.792)" fill="url(#linear-gradient-2)"/>
        <rect id="Rectangle_21" data-name="Rectangle 21" width="5.285" height="5.285" transform="translate(28.926 159.74)" fill="url(#linear-gradient-2)"/>
        <rect id="Rectangle_22" data-name="Rectangle 22" width="5.285" height="5.284" transform="translate(28.926 191.688)" fill="url(#linear-gradient-2)"/>
        <rect id="Rectangle_23" data-name="Rectangle 23" width="5.285" height="5.284" transform="translate(28.926 223.636)" fill="url(#linear-gradient-2)"/>
        <rect id="Rectangle_24" data-name="Rectangle 24" width="5.285" height="5.284" transform="translate(28.926 255.584)" fill="url(#linear-gradient-2)"/>
        <rect id="Rectangle_25" data-name="Rectangle 25" width="5.285" height="5.284" transform="translate(28.926 287.531)" fill="url(#linear-gradient-2)"/>
        <rect id="Rectangle_26" data-name="Rectangle 26" width="5.285" height="5.284" transform="translate(28.926 319.48)" fill="url(#linear-gradient-2)"/>
        <rect id="Rectangle_27" data-name="Rectangle 27" width="5.284" height="5.284" transform="translate(57.851)" fill="url(#linear-gradient-2)"/>
        <rect id="Rectangle_28" data-name="Rectangle 28" width="5.284" height="5.284" transform="translate(57.851 31.948)" fill="url(#linear-gradient-2)"/>
        <rect id="Rectangle_29" data-name="Rectangle 29" width="5.284" height="5.284" transform="translate(57.851 63.896)" fill="url(#linear-gradient-2)"/>
        <rect id="Rectangle_30" data-name="Rectangle 30" width="5.284" height="5.284" transform="translate(57.851 95.844)" fill="url(#linear-gradient-2)"/>
        <rect id="Rectangle_31" data-name="Rectangle 31" width="5.284" height="5.284" transform="translate(57.851 127.792)" fill="url(#linear-gradient-2)"/>
        <rect id="Rectangle_32" data-name="Rectangle 32" width="5.284" height="5.285" transform="translate(57.851 159.74)" fill="url(#linear-gradient-2)"/>
        <rect id="Rectangle_33" data-name="Rectangle 33" width="5.284" height="5.284" transform="translate(57.851 191.688)" fill="url(#linear-gradient-2)"/>
        <rect id="Rectangle_34" data-name="Rectangle 34" width="5.284" height="5.284" transform="translate(57.851 223.636)" fill="url(#linear-gradient-2)"/>
        <rect id="Rectangle_35" data-name="Rectangle 35" width="5.284" height="5.284" transform="translate(57.851 255.584)" fill="url(#linear-gradient-2)"/>
        <rect id="Rectangle_36" data-name="Rectangle 36" width="5.284" height="5.284" transform="translate(57.851 287.531)" fill="url(#linear-gradient-2)"/>
        <rect id="Rectangle_37" data-name="Rectangle 37" width="5.284" height="5.284" transform="translate(57.851 319.48)" fill="url(#linear-gradient-2)"/>
        <rect id="Rectangle_38" data-name="Rectangle 38" width="5.284" height="5.284" transform="translate(86.777)" fill="url(#linear-gradient-2)"/>
        <rect id="Rectangle_39" data-name="Rectangle 39" width="5.284" height="5.284" transform="translate(86.777 31.948)" fill="url(#linear-gradient-2)"/>
        <rect id="Rectangle_40" data-name="Rectangle 40" width="5.284" height="5.284" transform="translate(86.777 63.896)" fill="url(#linear-gradient-2)"/>
        <rect id="Rectangle_41" data-name="Rectangle 41" width="5.284" height="5.284" transform="translate(86.777 95.844)" fill="url(#linear-gradient-2)"/>
        <rect id="Rectangle_42" data-name="Rectangle 42" width="5.284" height="5.284" transform="translate(86.777 127.792)" fill="url(#linear-gradient-2)"/>
        <rect id="Rectangle_43" data-name="Rectangle 43" width="5.284" height="5.285" transform="translate(86.777 159.74)" fill="url(#linear-gradient-2)"/>
        <rect id="Rectangle_44" data-name="Rectangle 44" width="5.284" height="5.284" transform="translate(86.777 191.688)" fill="url(#linear-gradient-2)"/>
        <rect id="Rectangle_45" data-name="Rectangle 45" width="5.284" height="5.284" transform="translate(86.777 223.636)" fill="url(#linear-gradient-2)"/>
        <rect id="Rectangle_46" data-name="Rectangle 46" width="5.284" height="5.284" transform="translate(86.777 255.584)" fill="url(#linear-gradient-2)"/>
        <rect id="Rectangle_47" data-name="Rectangle 47" width="5.284" height="5.284" transform="translate(86.777 287.531)" fill="url(#linear-gradient-2)"/>
        <rect id="Rectangle_48" data-name="Rectangle 48" width="5.284" height="5.284" transform="translate(86.777 319.48)" fill="url(#linear-gradient-2)"/>
        <rect id="Rectangle_49" data-name="Rectangle 49" width="5.284" height="5.284" transform="translate(115.703)" fill="url(#linear-gradient-2)"/>
        <rect id="Rectangle_50" data-name="Rectangle 50" width="5.284" height="5.284" transform="translate(115.703 31.948)" fill="url(#linear-gradient-2)"/>
        <rect id="Rectangle_51" data-name="Rectangle 51" width="5.284" height="5.284" transform="translate(115.703 63.896)" fill="url(#linear-gradient-2)"/>
        <rect id="Rectangle_52" data-name="Rectangle 52" width="5.284" height="5.284" transform="translate(115.703 95.844)" fill="url(#linear-gradient-2)"/>
        <rect id="Rectangle_53" data-name="Rectangle 53" width="5.284" height="5.284" transform="translate(115.703 127.792)" fill="url(#linear-gradient-2)"/>
        <rect id="Rectangle_54" data-name="Rectangle 54" width="5.284" height="5.285" transform="translate(115.703 159.74)" fill="url(#linear-gradient-2)"/>
        <rect id="Rectangle_55" data-name="Rectangle 55" width="5.284" height="5.284" transform="translate(115.703 191.688)" fill="url(#linear-gradient-2)"/>
        <rect id="Rectangle_56" data-name="Rectangle 56" width="5.284" height="5.284" transform="translate(115.703 223.636)" fill="url(#linear-gradient-2)"/>
        <rect id="Rectangle_57" data-name="Rectangle 57" width="5.284" height="5.284" transform="translate(115.703 255.584)" fill="url(#linear-gradient-2)"/>
        <rect id="Rectangle_58" data-name="Rectangle 58" width="5.284" height="5.284" transform="translate(115.703 287.531)" fill="url(#linear-gradient-2)"/>
        <rect id="Rectangle_59" data-name="Rectangle 59" width="5.284" height="5.284" transform="translate(115.703 319.48)" fill="url(#linear-gradient-2)"/>
        <rect id="Rectangle_60" data-name="Rectangle 60" width="5.284" height="5.284" transform="translate(144.629)" fill="url(#linear-gradient-2)"/>
        <rect id="Rectangle_61" data-name="Rectangle 61" width="5.284" height="5.284" transform="translate(144.629 31.948)" fill="url(#linear-gradient-2)"/>
        <rect id="Rectangle_62" data-name="Rectangle 62" width="5.284" height="5.284" transform="translate(144.629 63.896)" fill="url(#linear-gradient-2)"/>
        <rect id="Rectangle_63" data-name="Rectangle 63" width="5.284" height="5.284" transform="translate(144.629 95.844)" fill="url(#linear-gradient-2)"/>
        <rect id="Rectangle_64" data-name="Rectangle 64" width="5.284" height="5.284" transform="translate(144.629 127.792)" fill="url(#linear-gradient-2)"/>
        <rect id="Rectangle_65" data-name="Rectangle 65" width="5.284" height="5.285" transform="translate(144.629 159.74)" fill="url(#linear-gradient-2)"/>
        <rect id="Rectangle_66" data-name="Rectangle 66" width="5.284" height="5.284" transform="translate(144.629 191.688)" fill="url(#linear-gradient-2)"/>
        <rect id="Rectangle_67" data-name="Rectangle 67" width="5.284" height="5.284" transform="translate(144.629 223.636)" fill="url(#linear-gradient-2)"/>
        <rect id="Rectangle_68" data-name="Rectangle 68" width="5.284" height="5.284" transform="translate(144.629 255.584)" fill="url(#linear-gradient-2)"/>
        <rect id="Rectangle_69" data-name="Rectangle 69" width="5.284" height="5.284" transform="translate(144.629 287.531)" fill="url(#linear-gradient-2)"/>
        <rect id="Rectangle_70" data-name="Rectangle 70" width="5.284" height="5.284" transform="translate(144.629 319.48)" fill="url(#linear-gradient-2)"/>
        <rect id="Rectangle_71" data-name="Rectangle 71" width="5.284" height="5.284" transform="translate(173.555)" fill="url(#linear-gradient-2)"/>
        <rect id="Rectangle_72" data-name="Rectangle 72" width="5.284" height="5.284" transform="translate(173.555 31.948)" fill="url(#linear-gradient-2)"/>
        <rect id="Rectangle_73" data-name="Rectangle 73" width="5.284" height="5.284" transform="translate(173.555 63.896)" fill="url(#linear-gradient-2)"/>
        <rect id="Rectangle_74" data-name="Rectangle 74" width="5.284" height="5.284" transform="translate(173.555 95.844)" fill="url(#linear-gradient-2)"/>
        <rect id="Rectangle_75" data-name="Rectangle 75" width="5.284" height="5.284" transform="translate(173.555 127.792)" fill="url(#linear-gradient-2)"/>
        <rect id="Rectangle_76" data-name="Rectangle 76" width="5.284" height="5.285" transform="translate(173.555 159.74)" fill="url(#linear-gradient-2)"/>
        <rect id="Rectangle_77" data-name="Rectangle 77" width="5.284" height="5.284" transform="translate(173.555 191.688)" fill="url(#linear-gradient-2)"/>
        <rect id="Rectangle_78" data-name="Rectangle 78" width="5.284" height="5.284" transform="translate(173.555 223.636)" fill="url(#linear-gradient-2)"/>
        <rect id="Rectangle_79" data-name="Rectangle 79" width="5.284" height="5.284" transform="translate(173.555 255.584)" fill="url(#linear-gradient-2)"/>
        <rect id="Rectangle_80" data-name="Rectangle 80" width="5.284" height="5.284" transform="translate(173.555 287.531)" fill="url(#linear-gradient-2)"/>
        <rect id="Rectangle_81" data-name="Rectangle 81" width="5.284" height="5.284" transform="translate(173.555 319.48)" fill="url(#linear-gradient-2)"/>
        <rect id="Rectangle_82" data-name="Rectangle 82" width="5.284" height="5.284" transform="translate(202.481)" fill="url(#linear-gradient-2)"/>
        <rect id="Rectangle_83" data-name="Rectangle 83" width="5.284" height="5.284" transform="translate(202.481 31.948)" fill="url(#linear-gradient-2)"/>
        <rect id="Rectangle_84" data-name="Rectangle 84" width="5.284" height="5.284" transform="translate(202.481 63.896)" fill="url(#linear-gradient-2)"/>
        <rect id="Rectangle_85" data-name="Rectangle 85" width="5.284" height="5.284" transform="translate(202.481 95.844)" fill="url(#linear-gradient-2)"/>
        <rect id="Rectangle_86" data-name="Rectangle 86" width="5.284" height="5.284" transform="translate(202.481 127.792)" fill="url(#linear-gradient-2)"/>
        <rect id="Rectangle_87" data-name="Rectangle 87" width="5.284" height="5.285" transform="translate(202.481 159.74)" fill="url(#linear-gradient-2)"/>
        <rect id="Rectangle_88" data-name="Rectangle 88" width="5.284" height="5.284" transform="translate(202.481 191.688)" fill="url(#linear-gradient-2)"/>
        <rect id="Rectangle_89" data-name="Rectangle 89" width="5.284" height="5.284" transform="translate(202.481 223.636)" fill="url(#linear-gradient-2)"/>
        <rect id="Rectangle_90" data-name="Rectangle 90" width="5.284" height="5.284" transform="translate(202.481 255.584)" fill="url(#linear-gradient-2)"/>
        <rect id="Rectangle_91" data-name="Rectangle 91" width="5.284" height="5.284" transform="translate(202.481 287.531)" fill="url(#linear-gradient-2)"/>
        <rect id="Rectangle_92" data-name="Rectangle 92" width="5.284" height="5.284" transform="translate(202.481 319.48)" fill="url(#linear-gradient-2)"/>
        <rect id="Rectangle_93" data-name="Rectangle 93" width="5.284" height="5.284" transform="translate(231.406)" fill="url(#linear-gradient-2)"/>
        <rect id="Rectangle_94" data-name="Rectangle 94" width="5.284" height="5.284" transform="translate(231.406 31.948)" fill="url(#linear-gradient-2)"/>
        <rect id="Rectangle_95" data-name="Rectangle 95" width="5.284" height="5.284" transform="translate(231.406 63.896)" fill="url(#linear-gradient-2)"/>
        <rect id="Rectangle_96" data-name="Rectangle 96" width="5.284" height="5.284" transform="translate(231.406 95.844)" fill="url(#linear-gradient-2)"/>
        <rect id="Rectangle_97" data-name="Rectangle 97" width="5.284" height="5.284" transform="translate(231.406 127.792)" fill="url(#linear-gradient-2)"/>
        <rect id="Rectangle_98" data-name="Rectangle 98" width="5.284" height="5.285" transform="translate(231.406 159.74)" fill="url(#linear-gradient-2)"/>
        <rect id="Rectangle_99" data-name="Rectangle 99" width="5.284" height="5.284" transform="translate(231.406 191.688)" fill="url(#linear-gradient-2)"/>
        <rect id="Rectangle_100" data-name="Rectangle 100" width="5.284" height="5.284" transform="translate(231.406 223.636)" fill="url(#linear-gradient-2)"/>
        <rect id="Rectangle_101" data-name="Rectangle 101" width="5.284" height="5.284" transform="translate(231.406 255.584)" fill="url(#linear-gradient-2)"/>
        <rect id="Rectangle_102" data-name="Rectangle 102" width="5.284" height="5.284" transform="translate(231.406 287.531)" fill="url(#linear-gradient-2)"/>
        <rect id="Rectangle_103" data-name="Rectangle 103" width="5.284" height="5.284" transform="translate(231.406 319.48)" fill="url(#linear-gradient-2)"/>
        <rect id="Rectangle_104" data-name="Rectangle 104" width="5.284" height="5.284" transform="translate(260.332)" fill="url(#linear-gradient-2)"/>
        <rect id="Rectangle_105" data-name="Rectangle 105" width="5.284" height="5.284" transform="translate(260.332 31.948)" fill="url(#linear-gradient-2)"/>
        <rect id="Rectangle_106" data-name="Rectangle 106" width="5.284" height="5.284" transform="translate(260.332 63.896)" fill="url(#linear-gradient-2)"/>
        <rect id="Rectangle_107" data-name="Rectangle 107" width="5.284" height="5.284" transform="translate(260.332 95.844)" fill="url(#linear-gradient-2)"/>
        <rect id="Rectangle_108" data-name="Rectangle 108" width="5.284" height="5.284" transform="translate(260.332 127.792)" fill="url(#linear-gradient-2)"/>
        <rect id="Rectangle_109" data-name="Rectangle 109" width="5.284" height="5.285" transform="translate(260.332 159.74)" fill="url(#linear-gradient-2)"/>
        <rect id="Rectangle_110" data-name="Rectangle 110" width="5.284" height="5.284" transform="translate(260.332 191.688)" fill="url(#linear-gradient-2)"/>
        <rect id="Rectangle_111" data-name="Rectangle 111" width="5.284" height="5.284" transform="translate(260.332 223.636)" fill="url(#linear-gradient-2)"/>
        <rect id="Rectangle_112" data-name="Rectangle 112" width="5.284" height="5.284" transform="translate(260.332 255.584)" fill="url(#linear-gradient-2)"/>
        <rect id="Rectangle_113" data-name="Rectangle 113" width="5.284" height="5.284" transform="translate(260.332 287.531)" fill="url(#linear-gradient-2)"/>
        <rect id="Rectangle_114" data-name="Rectangle 114" width="5.284" height="5.284" transform="translate(260.332 319.48)" fill="url(#linear-gradient-2)"/>
        <rect id="Rectangle_115" data-name="Rectangle 115" width="5.284" height="5.284" transform="translate(289.258)" fill="url(#linear-gradient-2)"/>
        <rect id="Rectangle_116" data-name="Rectangle 116" width="5.284" height="5.284" transform="translate(289.258 31.948)" fill="url(#linear-gradient-2)"/>
        <rect id="Rectangle_117" data-name="Rectangle 117" width="5.284" height="5.284" transform="translate(289.258 63.896)" fill="url(#linear-gradient-2)"/>
        <rect id="Rectangle_118" data-name="Rectangle 118" width="5.284" height="5.284" transform="translate(289.258 95.844)" fill="url(#linear-gradient-2)"/>
        <rect id="Rectangle_119" data-name="Rectangle 119" width="5.284" height="5.284" transform="translate(289.258 127.792)" fill="url(#linear-gradient-2)"/>
        <rect id="Rectangle_120" data-name="Rectangle 120" width="5.284" height="5.285" transform="translate(289.258 159.74)" fill="url(#linear-gradient-2)"/>
        <rect id="Rectangle_121" data-name="Rectangle 121" width="5.284" height="5.284" transform="translate(289.258 191.688)" fill="url(#linear-gradient-2)"/>
        <rect id="Rectangle_122" data-name="Rectangle 122" width="5.284" height="5.284" transform="translate(289.258 223.636)" fill="url(#linear-gradient-2)"/>
        <rect id="Rectangle_123" data-name="Rectangle 123" width="5.284" height="5.284" transform="translate(289.258 255.584)" fill="url(#linear-gradient-2)"/>
        <rect id="Rectangle_124" data-name="Rectangle 124" width="5.284" height="5.284" transform="translate(289.258 287.531)" fill="url(#linear-gradient-2)"/>
        <rect id="Rectangle_125" data-name="Rectangle 125" width="5.284" height="5.284" transform="translate(289.258 319.48)" fill="url(#linear-gradient-2)"/>
      </g>
      <rect id="Rectangle_161" data-name="Rectangle 161" width="1914.894" height="1276.596" transform="translate(3.553 -96.394)" fill="none"/>
      <g transform="matrix(1, 0, 0, 1, 0, 0)" filter="url(#Path_81)">
        <path id="Path_81-2" data-name="Path 81" d="M763.029,208.852l-110.2,159.459-110.2-159.459Z" transform="translate(-460.23 371.73) rotate(-14)" opacity="0.657" fill="url(#linear-gradient-123)"/>
      </g>
      <rect id="Rectangle_162" data-name="Rectangle 162" width="1920" height="1080" transform="translate(1 1.904)" fill="none"/>
      <g transform="matrix(1, 0, 0, 1, 0, 0)" filter="url(#Rectangle_164)">
        <g id="Rectangle_164-2" data-name="Rectangle 164" transform="translate(-150.3 482.6) rotate(9)" fill="none" stroke="#a4b1ef" stroke-width="3">
          <rect width="708" height="631" stroke="none"/>
          <rect x="1.5" y="1.5" width="705" height="628" fill="none"/>
        </g>
      </g>
      <g transform="matrix(1, 0, 0, 1, 0, 0)" filter="url(#Ellipse_158)">
        <circle id="Ellipse_158-2" data-name="Ellipse 158" cx="62.554" cy="62.554" r="62.554" transform="translate(1626.46 320.35) rotate(-45)" opacity="0.75" fill="url(#linear-gradient-124)"/>
      </g>
      <g transform="matrix(1, 0, 0, 1, 0, 0)" filter="url(#Path_3716)">
        <path id="Path_3716-2" data-name="Path 3716" d="M1771.905,208.852l-614.637,865.342L542.634,208.852Z" transform="matrix(0.33, 0.95, -0.95, 0.33, 1737.95, -1292.26)" fill="none" stroke="#fb8888" stroke-width="3" opacity="0.705"/>
      </g>
      <g transform="matrix(1, 0, 0, 1, 0, 0)" filter="url(#Ellipse_157)">
        <circle id="Ellipse_157-2" data-name="Ellipse 157" cx="294" cy="294" r="294" transform="translate(1370.87 996.89) rotate(-45)" fill="none" stroke="#8ff4d2" stroke-width="3"/>
      </g>
      <g id="Group_3439" data-name="Group 3439" transform="translate(1626.458 900.791)" opacity="0.598">
        <rect id="Rectangle_5-2" data-name="Rectangle 5" width="5.284" height="5.284" fill="#a4b1ef"/>
        <rect id="Rectangle_6-2" data-name="Rectangle 6" width="5.284" height="5.284" transform="translate(0 31.948)" fill="#a4b1ef"/>
        <rect id="Rectangle_7-2" data-name="Rectangle 7" width="5.284" height="5.284" transform="translate(0 63.896)" fill="#a4b1ef"/>
        <rect id="Rectangle_8-2" data-name="Rectangle 8" width="5.284" height="5.284" transform="translate(0 95.844)" fill="#a4b1ef"/>
        <rect id="Rectangle_9-2" data-name="Rectangle 9" width="5.284" height="5.284" transform="translate(0 127.792)" fill="#a4b1ef"/>
        <rect id="Rectangle_10-2" data-name="Rectangle 10" width="5.284" height="5.285" transform="translate(0 159.74)" fill="#a4b1ef"/>
        <rect id="Rectangle_11-2" data-name="Rectangle 11" width="5.284" height="5.284" transform="translate(0 191.688)" fill="#a4b1ef"/>
        <rect id="Rectangle_12-2" data-name="Rectangle 12" width="5.284" height="5.284" transform="translate(0 223.636)" fill="#a4b1ef"/>
        <rect id="Rectangle_13-2" data-name="Rectangle 13" width="5.284" height="5.284" transform="translate(0 255.584)" fill="#a4b1ef"/>
        <rect id="Rectangle_14-2" data-name="Rectangle 14" width="5.284" height="5.284" transform="translate(0 287.531)" fill="#a4b1ef"/>
        <rect id="Rectangle_15-2" data-name="Rectangle 15" width="5.284" height="5.284" transform="translate(0 319.48)" fill="#a4b1ef"/>
        <rect id="Rectangle_16-2" data-name="Rectangle 16" width="5.285" height="5.284" transform="translate(28.926)" fill="#a4b1ef"/>
        <rect id="Rectangle_17-2" data-name="Rectangle 17" width="5.285" height="5.284" transform="translate(28.926 31.948)" fill="#a4b1ef"/>
        <rect id="Rectangle_18-2" data-name="Rectangle 18" width="5.285" height="5.284" transform="translate(28.926 63.896)" fill="#a4b1ef"/>
        <rect id="Rectangle_19-2" data-name="Rectangle 19" width="5.285" height="5.284" transform="translate(28.926 95.844)" fill="#a4b1ef"/>
        <rect id="Rectangle_20-2" data-name="Rectangle 20" width="5.285" height="5.284" transform="translate(28.926 127.792)" fill="#a4b1ef"/>
        <rect id="Rectangle_21-2" data-name="Rectangle 21" width="5.285" height="5.285" transform="translate(28.926 159.74)" fill="#a4b1ef"/>
        <rect id="Rectangle_22-2" data-name="Rectangle 22" width="5.285" height="5.284" transform="translate(28.926 191.688)" fill="#a4b1ef"/>
        <rect id="Rectangle_23-2" data-name="Rectangle 23" width="5.285" height="5.284" transform="translate(28.926 223.636)" fill="#a4b1ef"/>
        <rect id="Rectangle_24-2" data-name="Rectangle 24" width="5.285" height="5.284" transform="translate(28.926 255.584)" fill="#a4b1ef"/>
        <rect id="Rectangle_25-2" data-name="Rectangle 25" width="5.285" height="5.284" transform="translate(28.926 287.531)" fill="#a4b1ef"/>
        <rect id="Rectangle_26-2" data-name="Rectangle 26" width="5.285" height="5.284" transform="translate(28.926 319.48)" fill="#a4b1ef"/>
        <rect id="Rectangle_27-2" data-name="Rectangle 27" width="5.284" height="5.284" transform="translate(57.851)" fill="#a4b1ef"/>
        <rect id="Rectangle_28-2" data-name="Rectangle 28" width="5.284" height="5.284" transform="translate(57.851 31.948)" fill="#a4b1ef"/>
        <rect id="Rectangle_29-2" data-name="Rectangle 29" width="5.284" height="5.284" transform="translate(57.851 63.896)" fill="#a4b1ef"/>
        <rect id="Rectangle_30-2" data-name="Rectangle 30" width="5.284" height="5.284" transform="translate(57.851 95.844)" fill="#a4b1ef"/>
        <rect id="Rectangle_31-2" data-name="Rectangle 31" width="5.284" height="5.284" transform="translate(57.851 127.792)" fill="#a4b1ef"/>
        <rect id="Rectangle_32-2" data-name="Rectangle 32" width="5.284" height="5.285" transform="translate(57.851 159.74)" fill="#a4b1ef"/>
        <rect id="Rectangle_33-2" data-name="Rectangle 33" width="5.284" height="5.284" transform="translate(57.851 191.688)" fill="#a4b1ef"/>
        <rect id="Rectangle_34-2" data-name="Rectangle 34" width="5.284" height="5.284" transform="translate(57.851 223.636)" fill="#a4b1ef"/>
        <rect id="Rectangle_35-2" data-name="Rectangle 35" width="5.284" height="5.284" transform="translate(57.851 255.584)" fill="#a4b1ef"/>
        <rect id="Rectangle_36-2" data-name="Rectangle 36" width="5.284" height="5.284" transform="translate(57.851 287.531)" fill="#a4b1ef"/>
        <rect id="Rectangle_37-2" data-name="Rectangle 37" width="5.284" height="5.284" transform="translate(57.851 319.48)" fill="#a4b1ef"/>
        <rect id="Rectangle_38-2" data-name="Rectangle 38" width="5.284" height="5.284" transform="translate(86.777)" fill="#a4b1ef"/>
        <rect id="Rectangle_39-2" data-name="Rectangle 39" width="5.284" height="5.284" transform="translate(86.777 31.948)" fill="#a4b1ef"/>
        <rect id="Rectangle_40-2" data-name="Rectangle 40" width="5.284" height="5.284" transform="translate(86.777 63.896)" fill="#a4b1ef"/>
        <rect id="Rectangle_41-2" data-name="Rectangle 41" width="5.284" height="5.284" transform="translate(86.777 95.844)" fill="#a4b1ef"/>
        <rect id="Rectangle_42-2" data-name="Rectangle 42" width="5.284" height="5.284" transform="translate(86.777 127.792)" fill="#a4b1ef"/>
        <rect id="Rectangle_43-2" data-name="Rectangle 43" width="5.284" height="5.285" transform="translate(86.777 159.74)" fill="#a4b1ef"/>
        <rect id="Rectangle_44-2" data-name="Rectangle 44" width="5.284" height="5.284" transform="translate(86.777 191.688)" fill="#a4b1ef"/>
        <rect id="Rectangle_45-2" data-name="Rectangle 45" width="5.284" height="5.284" transform="translate(86.777 223.636)" fill="#a4b1ef"/>
        <rect id="Rectangle_46-2" data-name="Rectangle 46" width="5.284" height="5.284" transform="translate(86.777 255.584)" fill="#a4b1ef"/>
        <rect id="Rectangle_47-2" data-name="Rectangle 47" width="5.284" height="5.284" transform="translate(86.777 287.531)" fill="#a4b1ef"/>
        <rect id="Rectangle_48-2" data-name="Rectangle 48" width="5.284" height="5.284" transform="translate(86.777 319.48)" fill="#a4b1ef"/>
        <rect id="Rectangle_49-2" data-name="Rectangle 49" width="5.284" height="5.284" transform="translate(115.703)" fill="#a4b1ef"/>
        <rect id="Rectangle_50-2" data-name="Rectangle 50" width="5.284" height="5.284" transform="translate(115.703 31.948)" fill="#a4b1ef"/>
        <rect id="Rectangle_51-2" data-name="Rectangle 51" width="5.284" height="5.284" transform="translate(115.703 63.896)" fill="#a4b1ef"/>
        <rect id="Rectangle_52-2" data-name="Rectangle 52" width="5.284" height="5.284" transform="translate(115.703 95.844)" fill="#a4b1ef"/>
        <rect id="Rectangle_53-2" data-name="Rectangle 53" width="5.284" height="5.284" transform="translate(115.703 127.792)" fill="#a4b1ef"/>
        <rect id="Rectangle_54-2" data-name="Rectangle 54" width="5.284" height="5.285" transform="translate(115.703 159.74)" fill="#a4b1ef"/>
        <rect id="Rectangle_55-2" data-name="Rectangle 55" width="5.284" height="5.284" transform="translate(115.703 191.688)" fill="#a4b1ef"/>
        <rect id="Rectangle_56-2" data-name="Rectangle 56" width="5.284" height="5.284" transform="translate(115.703 223.636)" fill="#a4b1ef"/>
        <rect id="Rectangle_57-2" data-name="Rectangle 57" width="5.284" height="5.284" transform="translate(115.703 255.584)" fill="#a4b1ef"/>
        <rect id="Rectangle_58-2" data-name="Rectangle 58" width="5.284" height="5.284" transform="translate(115.703 287.531)" fill="#a4b1ef"/>
        <rect id="Rectangle_59-2" data-name="Rectangle 59" width="5.284" height="5.284" transform="translate(115.703 319.48)" fill="#a4b1ef"/>
        <rect id="Rectangle_60-2" data-name="Rectangle 60" width="5.284" height="5.284" transform="translate(144.629)" fill="#a4b1ef"/>
        <rect id="Rectangle_61-2" data-name="Rectangle 61" width="5.284" height="5.284" transform="translate(144.629 31.948)" fill="#a4b1ef"/>
        <rect id="Rectangle_62-2" data-name="Rectangle 62" width="5.284" height="5.284" transform="translate(144.629 63.896)" fill="#a4b1ef"/>
        <rect id="Rectangle_63-2" data-name="Rectangle 63" width="5.284" height="5.284" transform="translate(144.629 95.844)" fill="#a4b1ef"/>
        <rect id="Rectangle_64-2" data-name="Rectangle 64" width="5.284" height="5.284" transform="translate(144.629 127.792)" fill="#a4b1ef"/>
        <rect id="Rectangle_65-2" data-name="Rectangle 65" width="5.284" height="5.285" transform="translate(144.629 159.74)" fill="#a4b1ef"/>
        <rect id="Rectangle_66-2" data-name="Rectangle 66" width="5.284" height="5.284" transform="translate(144.629 191.688)" fill="#a4b1ef"/>
        <rect id="Rectangle_67-2" data-name="Rectangle 67" width="5.284" height="5.284" transform="translate(144.629 223.636)" fill="#a4b1ef"/>
        <rect id="Rectangle_68-2" data-name="Rectangle 68" width="5.284" height="5.284" transform="translate(144.629 255.584)" fill="#a4b1ef"/>
        <rect id="Rectangle_69-2" data-name="Rectangle 69" width="5.284" height="5.284" transform="translate(144.629 287.531)" fill="#a4b1ef"/>
        <rect id="Rectangle_70-2" data-name="Rectangle 70" width="5.284" height="5.284" transform="translate(144.629 319.48)" fill="#a4b1ef"/>
        <rect id="Rectangle_71-2" data-name="Rectangle 71" width="5.284" height="5.284" transform="translate(173.555)" fill="#a4b1ef"/>
        <rect id="Rectangle_72-2" data-name="Rectangle 72" width="5.284" height="5.284" transform="translate(173.555 31.948)" fill="#a4b1ef"/>
        <rect id="Rectangle_73-2" data-name="Rectangle 73" width="5.284" height="5.284" transform="translate(173.555 63.896)" fill="#a4b1ef"/>
        <rect id="Rectangle_74-2" data-name="Rectangle 74" width="5.284" height="5.284" transform="translate(173.555 95.844)" fill="#a4b1ef"/>
        <rect id="Rectangle_75-2" data-name="Rectangle 75" width="5.284" height="5.284" transform="translate(173.555 127.792)" fill="#a4b1ef"/>
        <rect id="Rectangle_76-2" data-name="Rectangle 76" width="5.284" height="5.285" transform="translate(173.555 159.74)" fill="#a4b1ef"/>
        <rect id="Rectangle_77-2" data-name="Rectangle 77" width="5.284" height="5.284" transform="translate(173.555 191.688)" fill="#a4b1ef"/>
        <rect id="Rectangle_78-2" data-name="Rectangle 78" width="5.284" height="5.284" transform="translate(173.555 223.636)" fill="#a4b1ef"/>
        <rect id="Rectangle_79-2" data-name="Rectangle 79" width="5.284" height="5.284" transform="translate(173.555 255.584)" fill="#a4b1ef"/>
        <rect id="Rectangle_80-2" data-name="Rectangle 80" width="5.284" height="5.284" transform="translate(173.555 287.531)" fill="#a4b1ef"/>
        <rect id="Rectangle_81-2" data-name="Rectangle 81" width="5.284" height="5.284" transform="translate(173.555 319.48)" fill="#a4b1ef"/>
        <rect id="Rectangle_82-2" data-name="Rectangle 82" width="5.284" height="5.284" transform="translate(202.481)" fill="#a4b1ef"/>
        <rect id="Rectangle_83-2" data-name="Rectangle 83" width="5.284" height="5.284" transform="translate(202.481 31.948)" fill="#a4b1ef"/>
        <rect id="Rectangle_84-2" data-name="Rectangle 84" width="5.284" height="5.284" transform="translate(202.481 63.896)" fill="#a4b1ef"/>
        <rect id="Rectangle_85-2" data-name="Rectangle 85" width="5.284" height="5.284" transform="translate(202.481 95.844)" fill="#a4b1ef"/>
        <rect id="Rectangle_86-2" data-name="Rectangle 86" width="5.284" height="5.284" transform="translate(202.481 127.792)" fill="#a4b1ef"/>
        <rect id="Rectangle_87-2" data-name="Rectangle 87" width="5.284" height="5.285" transform="translate(202.481 159.74)" fill="#a4b1ef"/>
        <rect id="Rectangle_88-2" data-name="Rectangle 88" width="5.284" height="5.284" transform="translate(202.481 191.688)" fill="#a4b1ef"/>
        <rect id="Rectangle_89-2" data-name="Rectangle 89" width="5.284" height="5.284" transform="translate(202.481 223.636)" fill="#a4b1ef"/>
        <rect id="Rectangle_90-2" data-name="Rectangle 90" width="5.284" height="5.284" transform="translate(202.481 255.584)" fill="#a4b1ef"/>
        <rect id="Rectangle_91-2" data-name="Rectangle 91" width="5.284" height="5.284" transform="translate(202.481 287.531)" fill="#a4b1ef"/>
        <rect id="Rectangle_92-2" data-name="Rectangle 92" width="5.284" height="5.284" transform="translate(202.481 319.48)" fill="#a4b1ef"/>
        <rect id="Rectangle_93-2" data-name="Rectangle 93" width="5.284" height="5.284" transform="translate(231.406)" fill="#a4b1ef"/>
        <rect id="Rectangle_94-2" data-name="Rectangle 94" width="5.284" height="5.284" transform="translate(231.406 31.948)" fill="#a4b1ef"/>
        <rect id="Rectangle_95-2" data-name="Rectangle 95" width="5.284" height="5.284" transform="translate(231.406 63.896)" fill="#a4b1ef"/>
        <rect id="Rectangle_96-2" data-name="Rectangle 96" width="5.284" height="5.284" transform="translate(231.406 95.844)" fill="#a4b1ef"/>
        <rect id="Rectangle_97-2" data-name="Rectangle 97" width="5.284" height="5.284" transform="translate(231.406 127.792)" fill="#a4b1ef"/>
        <rect id="Rectangle_98-2" data-name="Rectangle 98" width="5.284" height="5.285" transform="translate(231.406 159.74)" fill="#a4b1ef"/>
        <rect id="Rectangle_99-2" data-name="Rectangle 99" width="5.284" height="5.284" transform="translate(231.406 191.688)" fill="#a4b1ef"/>
        <rect id="Rectangle_100-2" data-name="Rectangle 100" width="5.284" height="5.284" transform="translate(231.406 223.636)" fill="#a4b1ef"/>
        <rect id="Rectangle_101-2" data-name="Rectangle 101" width="5.284" height="5.284" transform="translate(231.406 255.584)" fill="#a4b1ef"/>
        <rect id="Rectangle_102-2" data-name="Rectangle 102" width="5.284" height="5.284" transform="translate(231.406 287.531)" fill="#a4b1ef"/>
        <rect id="Rectangle_103-2" data-name="Rectangle 103" width="5.284" height="5.284" transform="translate(231.406 319.48)" fill="#a4b1ef"/>
        <rect id="Rectangle_104-2" data-name="Rectangle 104" width="5.284" height="5.284" transform="translate(260.332)" fill="#a4b1ef"/>
        <rect id="Rectangle_105-2" data-name="Rectangle 105" width="5.284" height="5.284" transform="translate(260.332 31.948)" fill="#a4b1ef"/>
        <rect id="Rectangle_106-2" data-name="Rectangle 106" width="5.284" height="5.284" transform="translate(260.332 63.896)" fill="#a4b1ef"/>
        <rect id="Rectangle_107-2" data-name="Rectangle 107" width="5.284" height="5.284" transform="translate(260.332 95.844)" fill="#a4b1ef"/>
        <rect id="Rectangle_108-2" data-name="Rectangle 108" width="5.284" height="5.284" transform="translate(260.332 127.792)" fill="#a4b1ef"/>
        <rect id="Rectangle_109-2" data-name="Rectangle 109" width="5.284" height="5.285" transform="translate(260.332 159.74)" fill="#a4b1ef"/>
        <rect id="Rectangle_110-2" data-name="Rectangle 110" width="5.284" height="5.284" transform="translate(260.332 191.688)" fill="#a4b1ef"/>
        <rect id="Rectangle_111-2" data-name="Rectangle 111" width="5.284" height="5.284" transform="translate(260.332 223.636)" fill="#a4b1ef"/>
        <rect id="Rectangle_112-2" data-name="Rectangle 112" width="5.284" height="5.284" transform="translate(260.332 255.584)" fill="#a4b1ef"/>
        <rect id="Rectangle_113-2" data-name="Rectangle 113" width="5.284" height="5.284" transform="translate(260.332 287.531)" fill="#a4b1ef"/>
        <rect id="Rectangle_114-2" data-name="Rectangle 114" width="5.284" height="5.284" transform="translate(260.332 319.48)" fill="#a4b1ef"/>
        <rect id="Rectangle_115-2" data-name="Rectangle 115" width="5.284" height="5.284" transform="translate(289.258)" fill="#a4b1ef"/>
        <rect id="Rectangle_116-2" data-name="Rectangle 116" width="5.284" height="5.284" transform="translate(289.258 31.948)" fill="#a4b1ef"/>
        <rect id="Rectangle_117-2" data-name="Rectangle 117" width="5.284" height="5.284" transform="translate(289.258 63.896)" fill="#a4b1ef"/>
        <rect id="Rectangle_118-2" data-name="Rectangle 118" width="5.284" height="5.284" transform="translate(289.258 95.844)" fill="#a4b1ef"/>
        <rect id="Rectangle_119-2" data-name="Rectangle 119" width="5.284" height="5.284" transform="translate(289.258 127.792)" fill="#a4b1ef"/>
        <rect id="Rectangle_120-2" data-name="Rectangle 120" width="5.284" height="5.285" transform="translate(289.258 159.74)" fill="#a4b1ef"/>
        <rect id="Rectangle_121-2" data-name="Rectangle 121" width="5.284" height="5.284" transform="translate(289.258 191.688)" fill="#a4b1ef"/>
        <rect id="Rectangle_122-2" data-name="Rectangle 122" width="5.284" height="5.284" transform="translate(289.258 223.636)" fill="#a4b1ef"/>
        <rect id="Rectangle_123-2" data-name="Rectangle 123" width="5.284" height="5.284" transform="translate(289.258 255.584)" fill="#a4b1ef"/>
        <rect id="Rectangle_124-2" data-name="Rectangle 124" width="5.284" height="5.284" transform="translate(289.258 287.531)" fill="#a4b1ef"/>
        <rect id="Rectangle_125-2" data-name="Rectangle 125" width="5.284" height="5.284" transform="translate(289.258 319.48)" fill="#a4b1ef"/>
      </g>
    </g>
  </g>
</svg>
